<svg xmlns="http://www.w3.org/2000/svg" viewBox="0 0 1847.84 1830"><defs><style>.cls-1{fill:#e9ffdb;}</style></defs><g id="Illustration"><g id="Coding_workshop" data-name="Coding workshop"><path d="M1543.36,1316.75l-350.56,2.19c-2.27,0-3,2.12-3,4.14v298.26c0,28.55-199.18,102.75-201.12,99l-.24,31.57c0,5.88,5.15,11.09,11.74,11.09h298.39a102.71,102.71,0,0,0,39.46-8.22l161.6-68c29.09-12.25,47.45-38.56,47.45-67.25V1320.88A3.94,3.94,0,0,0,1543.36,1316.75Z" transform="translate(-326.08 -335)"/><path class="cls-1" d="M1154.28,1301.57v298.32c0,29.41-18.93,56.21-48.66,68.9l-109,46.53c-7.12,3-4.69,12.58,3.2,12.58h299.53a100.53,100.53,0,0,0,39-7.79l120.79-50.85c30-12.61,49.07-39.52,49.07-69.07V1301.57a2.36,2.36,0,0,0-2.48-2.21h-348.9A2.36,2.36,0,0,0,1154.28,1301.57Z" transform="translate(-326.08 -335)"/><path d="M1299.33,1730.13H999.8c-5.53,0-8.75-3.63-9.48-7.23-.83-4,1.35-7.9,5.41-9.63l109-46.53c28.74-12.27,47.31-38.51,47.31-66.85V1301.57a4.58,4.58,0,0,1,4.71-4.44h348.9a4.58,4.58,0,0,1,4.71,4.44v298.62c0,30.31-19.8,58.23-50.44,71.13l-120.78,50.85A103.44,103.44,0,0,1,1299.33,1730.13Zm-142.82-428.47v298.23c0,30.13-19.63,58-50,70.95l-109,46.53c-2.15.92-3.2,2.65-2.79,4.64.34,1.69,1.89,3.66,5.11,3.66h299.53a99,99,0,0,0,38.09-7.61l120.78-50.86c29-12.2,47.71-38.5,47.71-67V1301.6s-.1,0-.25,0h-348.9A.41.41,0,0,0,1156.51,1301.66Z" transform="translate(-326.08 -335)"/><path d="M499,1472.54l1511,3.39c13.22,0,26.41-9.94,28.09-23.08l122.77-945.48c2.93-22.91-14.81-45.7-37.6-45.13L629.76,470.13Z" transform="translate(-326.08 -335)"/><path class="cls-1" d="M2063.9,467.61c26,0,49.47,26.36,46.14,52.2l-119.2,930.73c-1.69,13.15-15.76,24.27-29,24.27L477.61,1472.4c-15.85,0-26.45-13.16-24.42-28.93l123.45-948c1.69-13.14,10.38-27.88,23.6-27.88Z" transform="translate(-326.08 -335)"/><path d="M1961.86,1477l-1484.25-2.41a26.36,26.36,0,0,1-20.17-8.82,28.61,28.61,0,0,1-6.46-22.62l123.45-948c1.86-14.45,11.54-29.82,25.81-29.82H2063.9c13.12,0,26.2,6.31,35.87,17.31s14.14,24.54,12.49,37.41l-119.21,930.73C1991.25,1464.79,1976.68,1477,1961.86,1477ZM600.24,469.84c-11.73,0-19.77,13.36-21.39,25.93l-123.44,948c-.94,7.3,1,14.09,5.38,19.11a22,22,0,0,0,16.82,7.3l1484.26,2.41c12.5,0,25.25-10.64,26.76-22.32l119.2-930.73c1.49-11.6-2.66-23.95-11.41-33.89s-20.68-15.8-32.52-15.8Z" transform="translate(-326.08 -335)"/><path d="M1927,1434.67l-1402.37-2.21a24.43,24.43,0,0,1-18.68-8.17,26.48,26.48,0,0,1-6-21L613.49,531.21c1.72-13.38,10.69-27.59,23.92-27.59H2020.83c12.12,0,24.2,5.82,33.13,16s13.06,22.67,11.53,34.56L1955.83,1410.4C1954.16,1423.33,1940.67,1434.67,1927,1434.67ZM637.41,508.08c-10.68,0-18,12.21-19.5,23.7L504.35,1403.91a21.71,21.71,0,0,0,4.91,17.43A20,20,0,0,0,524.6,1428L1927,1430.21c11.42,0,23.07-9.71,24.44-20.38l109.67-856.24c1.36-10.62-2.44-21.94-10.46-31s-18.94-14.47-29.78-14.47Z" transform="translate(-326.08 -335)"/><path d="M1873.38,626.25H1303.33a2.22,2.22,0,0,1-2.21-2.52l3.84-28.58a2.23,2.23,0,0,1,2.21-1.93h570.05a2.22,2.22,0,0,1,2.21,2.52l-3.84,28.58A2.22,2.22,0,0,1,1873.38,626.25Zm-567.5-4.46h565.55l3.24-24.11H1309.12Z" transform="translate(-326.08 -335)"/><polygon points="1670.31 336.14 1089.51 336.14 1093.36 307.56 1674.15 307.56 1670.31 336.14"/><path d="M1920,720.49h-300.2a2.23,2.23,0,0,1-2.21-2.53l3.84-28.58a2.24,2.24,0,0,1,2.21-1.93h300.21a2.23,2.23,0,0,1,2.21,2.53l-3.84,28.58A2.24,2.24,0,0,1,1920,720.49ZM1622.37,716h295.7l3.25-24.12H1625.61Z" transform="translate(-326.08 -335)"/><path d="M1822.7,1003.2h-570a2.25,2.25,0,0,1-2.22-2.53l3.85-28.58a2.22,2.22,0,0,1,2.21-1.93h570a2.23,2.23,0,0,1,2.21,2.53l-3.84,28.57A2.23,2.23,0,0,1,1822.7,1003.2Zm-567.49-4.46h565.54l3.24-24.12H1258.45Z" transform="translate(-326.08 -335)"/><path d="M1514.26,1050.31H1364.92a2.2,2.2,0,0,1-1.68-.76,2.22,2.22,0,0,1-.54-1.76l3.85-28.58a2.22,2.22,0,0,1,2.21-1.93h135.09a2.23,2.23,0,0,1,0,4.46H1370.71l-3.24,24.11h146.79a2.23,2.23,0,1,1,0,4.46Z" transform="translate(-326.08 -335)"/><path d="M1945.72,1050.31H1587a2.23,2.23,0,0,1,0-4.46h356.78l3.25-24.11H1567.62a2.23,2.23,0,1,1,0-4.46h381.94a2.23,2.23,0,0,1,1.68.76,2.26,2.26,0,0,1,.53,1.76l-3.84,28.58A2.23,2.23,0,0,1,1945.72,1050.31Z" transform="translate(-326.08 -335)"/><path d="M1939.38,1097.43H1629.12a2.23,2.23,0,1,1,0-4.46h308.31l3.24-24.12H1612a2.23,2.23,0,1,1,0-4.46h331.18a2.24,2.24,0,0,1,2.21,2.53l-3.84,28.58A2.22,2.22,0,0,1,1939.38,1097.43Z" transform="translate(-326.08 -335)"/><path d="M1561.93,1142.59H1350.36a2.23,2.23,0,0,1-2.21-2.53l3.84-28.58a2.23,2.23,0,0,1,2.21-1.93h174.13a2.23,2.23,0,0,1,0,4.46H1356.15l-3.24,24.12h209a2.23,2.23,0,1,1,0,4.46Z" transform="translate(-326.08 -335)"/><polygon points="1528.29 430.38 958.25 430.38 962.09 401.8 1532.14 401.8 1528.29 430.38"/><polygon points="1568.2 477.5 1070.51 477.5 1074.35 448.92 1568.96 448.92 1568.2 477.5"/><path d="M1824.65,909H1594.48a2.23,2.23,0,0,1-2.21-2.53l3.84-28.57a2.24,2.24,0,0,1,2.21-1.94h230.17a2.25,2.25,0,0,1,2.22,2.53L1826.86,907A2.22,2.22,0,0,1,1824.65,909ZM1597,904.5H1822.7l3.24-24.12H1600.28Z" transform="translate(-326.08 -335)"/><polygon points="1561.06 618.81 1330.89 618.81 1334.73 590.24 1564.9 590.24 1561.06 618.81"/><polygon points="1549.98 524.61 1274.74 524.61 1278.58 496.04 1551.12 496.04 1549.98 524.61"/><polygon class="cls-1" points="1471.28 854.44 901.24 854.44 905.08 825.86 1475.13 825.86 1471.28 854.44"/><path d="M1640.51,1238.78H1339.58a2.22,2.22,0,0,1-2.21-2.52l3.84-28.58a2.22,2.22,0,0,1,2.21-1.93h286.84a2.23,2.23,0,0,1,0,4.46H1345.37l-3.24,24.11h298.38a2.23,2.23,0,0,1,0,4.46Z" transform="translate(-326.08 -335)"/><path d="M1798.81,1285.9h-255a2.23,2.23,0,0,1-2.21-2.53l3.84-28.57a2.23,2.23,0,0,1,2.21-1.94h242a2.23,2.23,0,0,1,0,4.46H1549.6l-3.24,24.12h252.45a2.23,2.23,0,0,1,0,4.46Z" transform="translate(-326.08 -335)"/><polygon class="cls-1" points="1452.28 995.79 882.23 995.79 886.07 967.21 1456.12 967.21 1452.28 995.79"/><path d="M1796.53,1380.14h-476a2.23,2.23,0,0,1-2.21-2.53l3.84-28.58a2.24,2.24,0,0,1,2.22-1.93h474.39a2.23,2.23,0,0,1,0,4.46H1326.37l-3.25,24.12h473.41a2.23,2.23,0,0,1,0,4.46Z" transform="translate(-326.08 -335)"/><polygon points="885.53 618.29 830 618.29 833.69 590.83 889.22 590.83 885.53 618.29"/><polygon points="931.88 289.03 874 289.03 877.84 260.45 935.72 260.45 931.88 289.03"/><polygon points="937.7 245.72 879.82 245.72 883.67 217.14 941.54 217.14 937.7 245.72"/><polygon points="925.1 336.15 867.67 336.15 871.51 307.57 928.94 307.57 925.1 336.15"/><polygon points="916.82 383.26 862.31 383.26 866.15 354.69 920.66 354.69 916.82 383.26"/><polygon points="910.78 430.38 855.29 430.38 859.13 401.81 914.62 401.81 910.78 430.38"/><polygon points="904.15 477.5 848.66 477.5 852.51 448.92 907.99 448.92 904.15 477.5"/><polygon points="893.12 569.84 838.13 569.84 841.98 541.27 896.96 541.27 893.12 569.84"/><polygon points="898.07 522.73 845.5 522.73 849.35 494.15 901.91 494.15 898.07 522.73"/><polygon points="866.29 761.41 810.76 761.41 814.45 733.96 869.98 733.96 866.29 761.41"/><polygon points="873.88 712.97 818.89 712.97 822.74 684.39 877.72 684.39 873.88 712.97"/><polygon points="878.83 665.85 826.26 665.85 830.1 637.27 882.67 637.27 878.83 665.85"/><polygon points="828.82 1040.13 773.29 1040.13 776.98 1012.67 832.51 1012.67 828.82 1040.13"/><polygon points="860.11 805.1 805.59 805.1 809.43 776.52 863.95 776.52 860.11 805.1"/><polygon points="854.06 852.22 798.58 852.22 802.42 823.64 857.91 823.64 854.06 852.22"/><polygon points="847.44 899.34 791.95 899.34 795.79 870.76 851.28 870.76 847.44 899.34"/><polygon points="836.41 991.68 781.42 991.68 785.26 963.1 840.25 963.1 836.41 991.68"/><polygon points="841.36 944.56 788.79 944.56 792.63 915.99 845.2 915.99 841.36 944.56"/><polygon points="637.54 239.46 363.13 239.46 366.83 212 641.23 212 637.54 239.46"/><path d="M1011.84,624.37H722.59a2.23,2.23,0,0,1-2.21-2.53l3.84-28.58a2.24,2.24,0,0,1,2.21-1.93h289.25a2.23,2.23,0,0,1,2.21,2.53l-3.84,28.58A2.24,2.24,0,0,1,1011.84,624.37Zm-286.7-4.46h284.75l3.24-24.12H728.38Z" transform="translate(-326.08 -335)"/><path d="M1087.45,671.49h-337a2.24,2.24,0,0,1-2.21-2.53l3.84-28.58a2.22,2.22,0,0,1,2.21-1.93h337a2.23,2.23,0,0,1,2.21,2.53l-3.84,28.57A2.23,2.23,0,0,1,1087.45,671.49ZM753,667H1085.5l3.24-24.12H756.25Z" transform="translate(-326.08 -335)"/><path d="M1130.65,718.6H849.44a2.22,2.22,0,0,1-2.21-2.52l3.84-28.58a2.22,2.22,0,0,1,2.21-1.93H1134.5a2.23,2.23,0,0,1,1.68.76,2.26,2.26,0,0,1,.53,1.76l-3.85,28.58A2.22,2.22,0,0,1,1130.65,718.6ZM852,714.14H1128.7L1132,690H855.23Z" transform="translate(-326.08 -335)"/><polygon points="534.72 616.4 312.46 616.4 316.15 588.95 538.41 588.95 534.72 616.4"/><path d="M864.26,1001.31H701.73a2.23,2.23,0,0,1-2.21-2.53l3.84-28.58a2.24,2.24,0,0,1,2.21-1.93H868.11a2.22,2.22,0,0,1,1.67.76,2.25,2.25,0,0,1,.54,1.77l-3.85,28.58A2.23,2.23,0,0,1,864.26,1001.31Zm-160-4.46h158l3.25-24.12h-158Z" transform="translate(-326.08 -335)"/><path d="M922.46,1048.43H766.87a2.24,2.24,0,0,1-2.21-2.53l3.84-28.58a2.24,2.24,0,0,1,2.21-1.93H926.3a2.23,2.23,0,0,1,1.68.76,2.19,2.19,0,0,1,.53,1.77l-3.84,28.57A2.23,2.23,0,0,1,922.46,1048.43Zm-153-4.46H920.51l3.24-24.12H772.66Z" transform="translate(-326.08 -335)"/><path d="M1025.47,1095.54H828.58a2.2,2.2,0,0,1-1.68-.76,2.17,2.17,0,0,1-.53-1.76l3.84-28.58a2.22,2.22,0,0,1,2.21-1.93h196.89a2.22,2.22,0,0,1,2.21,2.52l-3.84,28.58A2.22,2.22,0,0,1,1025.47,1095.54Zm-194.34-4.46h192.39l3.24-24.11H834.37Z" transform="translate(-326.08 -335)"/><polygon points="540.01 428.49 341.28 428.49 345.13 399.91 543.85 399.91 540.01 428.49"/><path d="M1113.06,812.84H806a2.23,2.23,0,0,1-2.21-2.53l3.84-28.58a2.23,2.23,0,0,1,2.21-1.93H1116.9a2.23,2.23,0,0,1,2.21,2.53l-3.84,28.58A2.23,2.23,0,0,1,1113.06,812.84Zm-304.51-4.46h302.56l3.24-24.12H811.79Z" transform="translate(-326.08 -335)"/><polygon points="529.83 522.65 331.11 522.65 334.95 494.07 533.67 494.07 529.83 522.65"/><path d="M1102.88,907H795.82a2.23,2.23,0,0,1-2.21-2.53l3.84-28.58a2.24,2.24,0,0,1,2.21-1.93h307.07a2.23,2.23,0,0,1,2.21,2.53l-3.85,28.58A2.22,2.22,0,0,1,1102.88,907Zm-304.51-4.46h302.56l3.25-24.12H801.61Z" transform="translate(-326.08 -335)"/><polygon points="534.21 804.87 287.12 804.87 290.81 777.42 537.9 777.42 534.21 804.87"/><path d="M1020.25,1189.78H616.76a2.23,2.23,0,0,1-2.21-2.53l3.84-28.58a2.24,2.24,0,0,1,2.21-1.93h403.49a2.23,2.23,0,0,1,1.68.76,2.2,2.2,0,0,1,.53,1.77l-3.84,28.58A2.23,2.23,0,0,1,1020.25,1189.78Zm-400.94-4.46h399l3.24-24.12h-399Z" transform="translate(-326.08 -335)"/><path d="M1018.88,1236.9H787.24a2.24,2.24,0,0,1-2.22-2.53l3.85-28.58a2.23,2.23,0,0,1,2.21-1.93h231.64a2.24,2.24,0,0,1,2.22,2.53l-3.85,28.58A2.23,2.23,0,0,1,1018.88,1236.9Zm-229.09-4.46h227.14l3.24-24.12H793Z" transform="translate(-326.08 -335)"/><polygon points="595.65 993.9 440.74 993.9 428.21 965.33 599.49 965.33 595.65 993.9"/><path d="M1065.2,1280.29H843a2.23,2.23,0,0,1-2.21-2.53l3.84-28.58a2.24,2.24,0,0,1,2.21-1.93H1069a2.23,2.23,0,0,1,2.21,2.53l-3.84,28.57A2.24,2.24,0,0,1,1065.2,1280.29Zm-219.64-4.46h217.68l3.25-24.12H848.8Z" transform="translate(-326.08 -335)"/><path d="M967.53,1378.25H790.24a2.23,2.23,0,0,1,0-4.46H965.58l3.25-24.12H782a2.23,2.23,0,0,1,0-4.46H971.38a2.24,2.24,0,0,1,2.21,2.53l-3.85,28.58A2.22,2.22,0,0,1,967.53,1378.25Z" transform="translate(-326.08 -335)"/><polygon class="cls-1" points="1757.42 1669.77 1751.86 1723.15 1716 1727.38 1716 1664.08 1757.42 1669.77"/><path d="M2042.08,2064.61a2.24,2.24,0,0,1-2.23-2.23v-63.3a2.24,2.24,0,0,1,2.53-2.21l41.43,5.69a2.22,2.22,0,0,1,1.91,2.44l-5.56,53.38a2.23,2.23,0,0,1-2,2l-35.86,4.23Zm2.23-63v58.23l31.59-3.73,5.16-49.46Z" transform="translate(-326.08 -335)"/><path class="cls-1" d="M2036.43,2155.3a248.82,248.82,0,0,0,68.24,0,16.11,16.11,0,0,0,13.38-19.8c-6.33-25.91-17.24-75.08-36-97.87l-4.65,12.36-6.43-11.64a5.7,5.7,0,0,0-4.26-2.9l-14.07-1.79a5.69,5.69,0,0,0-6.29,4.5l-2.24,10.72-8.58-14-3.81,52.49a218.66,218.66,0,0,1-5,33.39l-3.84,16.56A16.07,16.07,0,0,0,2036.43,2155.3Z" transform="translate(-326.08 -335)"/><path d="M2070.33,2159.87a244.75,244.75,0,0,1-34.21-2.36,18.36,18.36,0,0,1-15.48-20.56l3.88-16.77a217.45,217.45,0,0,0,5-33l3.81-52.49a2.23,2.23,0,0,1,4.13-1l5.64,9.24,1.09-5.2a8,8,0,0,1,8.75-6.26l14.08,1.79a8,8,0,0,1,5.92,4l4.09,7.41,3-7.84a2.23,2.23,0,0,1,3.8-.63c17.79,21.63,28.61,66.4,35.07,93.15l1.36,5.61a18.34,18.34,0,0,1-15.24,22.54A251.06,251.06,0,0,1,2070.33,2159.87Zm-33.06-118-3.31,45.55a219.59,219.59,0,0,1-5.1,33.73l-3.84,16.56a13.86,13.86,0,0,0,11.73,15.35,246.06,246.06,0,0,0,67.62,0,13.89,13.89,0,0,0,11.52-17.06l-1.36-5.62c-6.08-25.13-16-66.37-31.78-88.24l-3.24,8.6a2.23,2.23,0,0,1-4,.3L2069,2039.4a3.43,3.43,0,0,0-2.59-1.76l-14.08-1.8a3.48,3.48,0,0,0-3.82,2.75l-2.23,10.72a2.23,2.23,0,0,1-4.09.7Z" transform="translate(-326.08 -335)"/><path d="M2069.22,2144c-18.23,0-29.33-3.9-30-4.15a2.23,2.23,0,1,1,1.51-4.19c.24.08,23.92,8.35,58.84.34a2.23,2.23,0,0,1,1,4.35A140.07,140.07,0,0,1,2069.22,2144Z" transform="translate(-326.08 -335)"/><path d="M2086.53,2103h-.07l-33.61-1.12a2.23,2.23,0,1,1,.15-4.45l33.6,1.11a2.23,2.23,0,0,1-.07,4.46Z" transform="translate(-326.08 -335)"/><polygon class="cls-1" points="1589.48 1641.35 1584.1 1719.24 1540.96 1719.24 1538.95 1641.35 1589.48 1641.35"/><path d="M1910.18,2056.47H1867a2.23,2.23,0,0,1-2.23-2.17l-2-77.9a2.25,2.25,0,0,1,.64-1.61,2.21,2.21,0,0,1,1.59-.68h50.53a2.23,2.23,0,0,1,1.63.71,2.26,2.26,0,0,1,.59,1.68l-5.37,77.9A2.23,2.23,0,0,1,1910.18,2056.47Zm-41-4.46h38.89l5.07-73.44h-45.85Z" transform="translate(-326.08 -335)"/><path class="cls-1" d="M1921.46,2098.22a15.68,15.68,0,0,1-12,15.51c-24.8,5.81-80.68,18.75-96.62,21.13-20.68,3.1-46.11-3.28-57-15.45s24.48-41.26,41.28-51.84c25-15.72,48.94-46.79,59-48.19s28.82,28,28.82,28l30.69-13S1920.9,2060.84,1921.46,2098.22Z" transform="translate(-326.08 -335)"/><path d="M1802,2137.88c-19,0-38.62-6.66-47.89-17a10.51,10.51,0,0,1-2.49-8.87c2.14-15.32,30.73-37.84,44.24-46.35,12.26-7.72,24.16-19.09,34.66-29.11,11.3-10.8,19.47-18.6,25.22-19.39,10.08-1.42,25.11,20,30,27.39l29-12.25a2.23,2.23,0,0,1,3,1.62c.06.26,5.4,27.09,6,64.24a18,18,0,0,1-13.75,17.72c-23.74,5.56-80.7,18.76-96.8,21.17A76,76,0,0,1,1802,2137.88Zm54.81-116.32a3.29,3.29,0,0,0-.45,0c-4.33.6-13.28,9.15-22.76,18.2-10.65,10.18-22.72,21.7-35.36,29.66-13.83,8.71-40.4,30.32-42.2,43.2a6.18,6.18,0,0,0,1.39,5.27c10.2,11.36,34.38,17.83,55,14.74,15.93-2.39,72.75-15.56,96.44-21.1a13.52,13.52,0,0,0,10.31-13.31,404.19,404.19,0,0,0-5.36-60.74l-28.13,11.89a2.22,2.22,0,0,1-2.75-.85C1875.7,2037.15,1863,2021.56,1856.81,2021.56Z" transform="translate(-326.08 -335)"/><path d="M1802.31,2118.78c-13.49,0-25.55-2.21-34.26-7.92a2.23,2.23,0,0,1,2.44-3.73c32,21,117.28-10.06,134-16.49a2.23,2.23,0,1,1,1.6,4.16C1888.44,2101.59,1839.87,2118.78,1802.31,2118.78Z" transform="translate(-326.08 -335)"/><path d="M1850.24,2076.4a2.22,2.22,0,0,1-1.56-.64l-17.87-17.5a2.23,2.23,0,0,1,3.12-3.19l17.87,17.5a2.23,2.23,0,0,1,0,3.16A2.27,2.27,0,0,1,1850.24,2076.4Z" transform="translate(-326.08 -335)"/><path class="cls-1" d="M2095.74,1468.52s13.37,243.52,20.36,327.58-16.36,219.19-16.36,219.19l-66.59-3.52s-4.57-164.3-9.52-209.92c0,0-28.13-61.85-36.46-117s-36.74-142.29-36.74-142.29-23.07,434.89-25.29,469.06c0,0-52.22,2.34-71-9.52,0,0-33.17-158.57-28.41-244.85s-.47-300.64-.47-300.64Z" transform="translate(-326.08 -335)"/><path d="M2099.75,2017.52h-.12L2033,2014a2.23,2.23,0,0,1-2.11-2.17c-.05-1.64-4.6-163.89-9.47-209.39-2.23-5-28.51-64.52-36.49-117.27-6.41-42.45-25-104.63-33-130.25-3.77,71-22.65,426.27-24.64,456.82a2.23,2.23,0,0,1-2.12,2.09c-2.17.1-53.14,2.23-72.24-9.86a2.24,2.24,0,0,1-1-1.43c-.33-1.59-33.18-159.85-28.46-245.43,4.71-85.21-.42-298.32-.47-300.47a2.21,2.21,0,0,1,.67-1.64,2.31,2.31,0,0,1,1.66-.64l270.43,11.93a2.23,2.23,0,0,1,2.12,2.11c.14,2.44,13.45,244.45,20.37,327.52,6.94,83.38-16.16,218.4-16.39,219.75A2.22,2.22,0,0,1,2099.75,2017.52Zm-64.43-7.87,62.56,3.31c2.8-16.91,22.44-139.32,16-216.67-6.58-79.09-19-302-20.26-325.63l-266-11.74c.55,23.79,4.85,217.95.4,298.43-4.5,81.55,25.45,230,28.18,243.33,16.46,9.57,57.34,9,66.86,8.76,2.83-46,24.93-462.74,25.16-467a2.23,2.23,0,0,1,4.35-.57c.28.87,28.55,87.94,36.82,142.65,8.19,54.21,36,115.81,36.29,116.42a2.09,2.09,0,0,1,.19.69C2030.45,1844,2034.77,1990.52,2035.32,2009.65Z" transform="translate(-326.08 -335)"/><path d="M2056.26,1804.06H2035.9a2.23,2.23,0,0,1,0-4.46h20.36a2.23,2.23,0,0,1,0,4.46Z" transform="translate(-326.08 -335)"/><path d="M1890.89,1930.55a2.22,2.22,0,0,1-2.23-2.19c-.72-39-45.36-112.42-45.81-113.16a2.23,2.23,0,1,1,3.81-2.33c1.86,3.05,45.72,75.17,46.46,115.41a2.24,2.24,0,0,1-2.19,2.27Z" transform="translate(-326.08 -335)"/><path class="cls-1" d="M1784.26,1083.29c-3.69-.29-34.38,52.4-48.82,77.56a14.52,14.52,0,0,1-20.25,5.16l-112.85-69.67a74.07,74.07,0,0,1-23.07-22.37c-9.43-14.36-15-29-27.65-39.16-10.26-8.3-20.65-17.52-23.76-19.93-1.95-1.51-11,4.93-4.19,16.37,2.1,3.52,9.93,10.64,12.07,13.88a14.55,14.55,0,0,1-.38,16.91c-4,5.2-7.43,13.54-2.88,25.14,6.72,17.17,22,21.41,30.59,22.41a17.51,17.51,0,0,1,11.2,5.9l104.14,119.33a50.22,50.22,0,0,0,64.1,9.91c33.86-20.68,77.45-62.36,108.85-115Z" transform="translate(-326.08 -335)"/><path d="M1716.33,1254.36a52.47,52.47,0,0,1-39.6-18.07L1572.59,1117a15.28,15.28,0,0,0-9.77-5.15c-9-1-25.25-5.53-32.42-23.81-5-12.77-1-21.91,3.2-27.33a12.26,12.26,0,0,0,.28-14.31,61.29,61.29,0,0,0-5.26-6c-2.76-2.9-5.61-5.91-6.86-8-4.94-8.28-2.55-14.89,1-18,2.26-2,4.86-2.51,6.46-1.26,1.35,1,4,3.28,7.28,6.11,4.46,3.82,10.58,9,16.52,13.84,9.24,7.48,14.76,17.07,20.61,27.22,2.35,4.08,4.78,8.3,7.5,12.46a72.45,72.45,0,0,0,22.38,21.7l112.85,69.66a12.16,12.16,0,0,0,9.48,1.46,12.29,12.29,0,0,0,7.67-5.83c45.37-79.1,48.69-78.83,50.93-78.68a2.35,2.35,0,0,1,1.09.39l67.1,46.41a2.23,2.23,0,0,1,.65,3c-33.77,56.63-78.76,97-109.61,115.8A52.42,52.42,0,0,1,1716.33,1254.36ZM1526.89,1017a5.72,5.72,0,0,0-2.65,2.69c-1,2-1.64,5.45,1.35,10.47,1,1.67,3.79,4.62,6.26,7.22a60.9,60.9,0,0,1,5.75,6.57,16.72,16.72,0,0,1-.48,19.51c-5.1,6.55-6,14.28-2.57,23,6.32,16.11,20.74,20.08,28.78,21A19.67,19.67,0,0,1,1576,1114l104.14,119.33a47.94,47.94,0,0,0,61.26,9.47c30.07-18.37,73.8-57.49,107-112.49L1784.22,1086c-4,4.06-18,25.71-46.84,76a16.75,16.75,0,0,1-23.36,6l-112.85-69.67a76.82,76.82,0,0,1-23.77-23c-2.79-4.26-5.26-8.54-7.64-12.67-5.63-9.79-11-19-19.54-26-6-4.84-12.13-10.09-16.62-13.92C1530.65,1020.09,1528.25,1018.05,1526.89,1017Z" transform="translate(-326.08 -335)"/><path d="M2171.58,1181.29s7.51-138.73-97.36-177.7c-81.21-30.18-184.92-17.16-217.42-5.89-80,27.76-119.41,133.49-119.41,133.49l93.78,13.22s-28.26,303.77-16,371.53c0,0,75.47,8.86,107.48-3.83s137.26-30.47,187.57-7.21L2101.08,1180Z" transform="translate(-326.08 -335)"/><path class="cls-1" d="M1868.42,1521.21a510.78,510.78,0,0,1-53.51-3.06,2.23,2.23,0,0,1-1.94-1.82c-11.77-65.06,13.09-340.72,15.79-370l-91.68-12.92a2.23,2.23,0,0,1-1.78-3c.4-1.07,40.68-107,120.77-134.81,35.48-12.31,139.41-23.65,218.92,5.9,43.58,16.19,74.48,52.48,89.38,104.94a257.39,257.39,0,0,1,9.44,75,2.23,2.23,0,0,1-2.23,2.11h0l-68.17-1.27,9.08,322.59a2.22,2.22,0,0,1-3.16,2.09c-50.23-23.23-154.33-5.23-185.82,7.25C1909.74,1519.62,1888.49,1521.21,1868.42,1521.21Zm-51.34-7.31c11.21,1.19,76.22,7.44,104.75-3.87,31.33-12.42,133.6-30.15,186.06-8.57l-9-321.41a2.28,2.28,0,0,1,.64-1.64,2.48,2.48,0,0,1,1.63-.66l68.3,1.27c.34-17.63-1-138-96-173.34-78.46-29.16-181-18-215.91-5.87-71.18,24.69-110.33,113.23-117,129.57l91,12.82a2.24,2.24,0,0,1,1.92,2.41C1833.11,1147.62,1805.73,1444.09,1817.08,1513.9Z" transform="translate(-326.08 -335)"/><path class="cls-1" d="M2040.87,1440.17l-.39,0c-122.43-21.78-158.23-107.57-158.58-108.43A2.23,2.23,0,0,1,1886,1330c.34.84,35.34,84.38,155.22,105.71a2.23,2.23,0,0,1-.39,4.42Z" transform="translate(-326.08 -335)"/><polygon class="cls-1" points="1491.03 958.03 1644.67 958.03 1596.55 785.28 1442.9 785.28 1491.03 958.03"/><path d="M1970.76,1295.26H1817.11a2.23,2.23,0,0,1-2.15-1.63l-48.12-172.75a2.23,2.23,0,0,1,2.15-2.83h153.64a2.24,2.24,0,0,1,2.15,1.63l48.12,172.76a2.22,2.22,0,0,1-2.14,2.82Zm-152-4.46h149l-46.88-168.29h-149Z" transform="translate(-326.08 -335)"/><path class="cls-1" d="M2153.37,1181.41l-67.56-3.06s-.51,57.27-6.61,58.29c-21.72,3.65-67.2,3.83-96.81.23a23.85,23.85,0,0,1-20.41-19.46,34.2,34.2,0,0,0-16.22-23.42c-10.22-6.34-.14,13.6-9.7,26.44-5.14,6.89-21.41,3.84-43.6-1.34s-27.82,18.7-3,33.12c27,15.63,44.08,13.88,52.68,15.71,17.12,3.65,168.51,27.53,191.88,14.75C2152.12,1272.79,2153.37,1181.41,2153.37,1181.41Z" transform="translate(-326.08 -335)"/><path d="M2104.7,1288.66c-54,0-154.41-16.73-163-18.56-1.72-.36-3.91-.59-6.46-.85-10.06-1-25.26-2.58-46.87-15.11-15.65-9.08-19.49-21.53-16.43-29.25,2.26-5.7,9-10.77,21-8,20,4.67,36.93,8,41.3,2.18s4.21-13.31,4.16-18.84c0-4.56-.06-7.86,2.39-9.24,2.06-1.16,4.48.06,6.12,1.07a36.66,36.66,0,0,1,17.23,24.91,21.6,21.6,0,0,0,18.49,17.66c29.17,3.54,73.81,3.46,95.84-.16,2.86-3.49,4.86-31.63,5.07-56.17a2.24,2.24,0,0,1,2.34-2.21l67.56,3.07a2.22,2.22,0,0,1,2.13,2.25c-.13,9.49-1.8,93-20.46,103.18C2129.87,1287.51,2118.88,1288.66,2104.7,1288.66Zm-218.06-68.05c-5.16,0-9,2.09-10.53,5.92-2.38,6,1.15,16,14.52,23.75,20.77,12,35.41,13.55,45.09,14.53a69.15,69.15,0,0,1,6.93.93c17.45,3.72,167.92,27.24,190.35,15,13.49-7.38,17.57-70.65,18.11-97.17l-63.11-2.86c-.07,4.65-.31,15.63-1,26.57-1.75,28.29-4.64,31.12-7.45,31.59-22.25,3.73-67.78,3.85-97.44.25a26,26,0,0,1-22.34-21.27,31.9,31.9,0,0,0-15.2-21.94,8.83,8.83,0,0,0-1.5-.77,32.23,32.23,0,0,0-.2,5.11c0,5.82.13,14.6-5.05,21.54-6,8.07-22.81,4.89-45.88-.49A23.57,23.57,0,0,0,1886.64,1220.61Z" transform="translate(-326.08 -335)"/><path class="cls-1" d="M1920.7,1000.18s17.5-10.77,17.33-17.06l5-32.31a6.83,6.83,0,0,0-4.52-6.58l-20.69-7.11a6.3,6.3,0,0,1-4.16-6.36l1.61-25.68-8.11-7.18a1.58,1.58,0,0,1-.17-2.19l12.81-15.6c4.18-5.9,8.39-20,11.82-19.05,0,0,73-8.43,76.54,28.37a22.35,22.35,0,0,1-4.18,15l-6.46,9.11a46.73,46.73,0,0,0-8.76,31.58c.24,2.33,3.27,17.33,5.3,27.25a23.87,23.87,0,0,0,8.82,14.13c5.7,4.39,12.64,10,11.51,10.35a108.19,108.19,0,0,1-20.84,11.19,76.93,76.93,0,0,1-69.37-5.76Z" transform="translate(-326.08 -335)"/><path d="M1964.75,1016A80.22,80.22,0,0,1,1923,1004.2l-3.47-2.12a2.23,2.23,0,0,1,0-3.8c7.89-4.86,16.35-12,16.27-15.1a1.79,1.79,0,0,1,0-.4l5-32.14a4.6,4.6,0,0,0-3-4.31l-20.67-7.1a8.57,8.57,0,0,1-5.66-8.61L1913,906l-7.3-6.46a3.79,3.79,0,0,1-.42-5.27l12.81-15.61a63.83,63.83,0,0,0,4.43-8.5c3.08-6.62,5.55-11.9,9.22-11.38,4.71-.51,48.13-4.67,68.43,11.74a26.56,26.56,0,0,1,10.23,18.67,24.54,24.54,0,0,1-4.58,16.51l-6.46,9.11A44.34,44.34,0,0,0,1991,944.9c.1,1,.92,5.78,5.27,27a21.6,21.6,0,0,0,8,12.81c12.89,9.93,12.73,10.85,12.47,12.38a2.61,2.61,0,0,1-1,1.53,109.28,109.28,0,0,1-21.31,11.46A77.64,77.64,0,0,1,1964.75,1016Zm-39.85-15.83.43.27a74.94,74.94,0,0,0,67.36,5.6,114.09,114.09,0,0,0,18.59-9.72c-1.32-1.24-4.06-3.6-9.77-8a26.13,26.13,0,0,1-9.64-15.45c-3.35-16.36-5.14-25.6-5.34-27.47a48.88,48.88,0,0,1,9.16-33.1l6.47-9.11a20.11,20.11,0,0,0,3.77-13.5,22,22,0,0,0-8.59-15.63c-19.59-15.84-65-10.79-65.48-10.74a2.16,2.16,0,0,1-.44,0c-1.23.93-3.51,5.82-4.89,8.79a63.14,63.14,0,0,1-4.93,9.33l-12.5,15.25,7.64,6.77a2.24,2.24,0,0,1,.75,1.8l-1.62,25.68a4.1,4.1,0,0,0,2.68,4.12l20.67,7.1a9.05,9.05,0,0,1,6,8.73,1.53,1.53,0,0,1,0,.3l-5,32.14C1940.15,989.06,1930.35,996.45,1924.9,1000.12Z" transform="translate(-326.08 -335)"/><path d="M1929.18,805.05c16.63-.86-4.4,16.28,57.21-1.43,24.54-7,11.94,21.74,18.31,19.93,23.52-6.7,22.71-6.49,34.14-3.37,7.58,2.06,12.41,16.23,10.9,26.77-2,13.93-17.61,36-31.59,59.39-7.24,12.1-20.07,13.19-35.57-4.81-1.65-1.92,6.78-13.2,2.38-18.07-11.45-12.65-16.53,6.46-25.77.56-8.87-5.67-12.53-9.33-21.91-17.89-11.34-10.37-30.39,5.76-37-17.56C1896.9,836.4,1906.41,806.22,1929.18,805.05Z" transform="translate(-326.08 -335)"/><path class="cls-1" d="M1384.75,2079.83a18.84,18.84,0,0,0,10-3.44c15.09-10.7,46.46-34.6,67.89-31.61,35.89,5,40.14,34.3,40.14,34.3s30.27-1.12,29.67,19c-.46,15.46-9.27,35.1-33.74,45.91-33.36,14.74-66.81,26-103.72,1.78a37.27,37.27,0,0,0-24.19-6c-20.74,2.09-329.82,8.75-329.82,8.75a190.16,190.16,0,0,1-168.4-101.85l-65.14-124.27,74.64-208.55,117,271.9C1055.79,2063.14,1378.84,2081.17,1384.75,2079.83Z" transform="translate(-326.08 -335)"/><path d="M1440,2162c-15,0-30.37-4-46.29-14.38A35.25,35.25,0,0,0,1371,2142c-20.59,2.07-317.38,8.48-330,8.76a191.84,191.84,0,0,1-170.42-103l-65.15-124.26a2.23,2.23,0,0,1-.12-1.79L880,1713.09a2.22,2.22,0,0,1,4.14-.13L1001,1984.62c55,74.27,370.84,94.57,383.33,93a1.26,1.26,0,0,1,.39,0,17,17,0,0,0,8.68-3l3.5-2.5c16.91-12.12,45.21-32.4,66-29.5,31.68,4.41,39.88,27.43,41.62,34.28,4.85.08,17.84,1,25.08,8.21a17,17,0,0,1,5,13.11c-.23,7.7-3.44,33.91-35.07,47.88C1480.57,2154.45,1460.74,2162,1440,2162Zm-65.66-24.68a39.94,39.94,0,0,1,21.81,6.57c36.14,23.68,68.68,12.59,101.6-2,29.24-12.91,32.2-36.9,32.41-43.94a12.58,12.58,0,0,0-3.7-9.8c-7.46-7.41-23.49-6.92-23.66-6.92h-.08a2.22,2.22,0,0,1-2.2-1.91c-.17-1.12-4.53-27.72-38.25-32.42-19-2.63-47.48,17.76-62.77,28.72l-3.52,2.51a21.78,21.78,0,0,1-11.27,3.85c-7.74.43-88.46-4-174.12-17.55-80.8-12.78-183.39-36.59-213.33-77.45a2.16,2.16,0,0,1-.25-.44l-114.8-266.69-72.4,202.29,64.69,123.4A187.38,187.38,0,0,0,1041,2146.28c3-.07,309.18-6.68,329.6-8.74A37.44,37.44,0,0,1,1374.37,2137.35Z" transform="translate(-326.08 -335)"/><path class="cls-1" d="M1303.54,2023.93l29.89-52.32,24.54,15.92a10.28,10.28,0,0,1,3.29,3.46l1.47,2.52a10.2,10.2,0,0,0,8.9,5.1,10,10,0,0,1,5.6,1.63l182.47,118.18a20.78,20.78,0,0,1,4.08,3.47l36.87,40.88-51.33-11.6a32.87,32.87,0,0,1-8-3l-192-100.39a10.28,10.28,0,0,1-4-3.72l-.25-.4a10.17,10.17,0,0,0-8.68-4.87h-1.78a9.92,9.92,0,0,1-4.69-1.15Z" transform="translate(-326.08 -335)"/><path d="M1600.65,2165a2.81,2.81,0,0,1-.49-.05l-51.33-11.6a35.33,35.33,0,0,1-8.59-3.16l-192-100.39a12.6,12.6,0,0,1-4.85-4.54l-.25-.39a8,8,0,0,0-6.74-3.81h-1.86a12.3,12.3,0,0,1-5.68-1.4l-26.31-13.75a2.23,2.23,0,0,1-.9-3.09l29.89-52.32a2.23,2.23,0,0,1,3.15-.76l24.53,15.92a12.43,12.43,0,0,1,4,4.21l1.47,2.52a8,8,0,0,0,6.85,4h.25a12.2,12.2,0,0,1,6.68,2l182.47,118.18a22.48,22.48,0,0,1,4.52,3.85l36.88,40.88a2.23,2.23,0,0,1-1.66,3.72Zm-264.29-128.4a12.47,12.47,0,0,1,10.54,5.93l.24.39a8.13,8.13,0,0,0,3.13,2.92l192,100.4a31.15,31.15,0,0,0,7.52,2.76l44.47,10.05-32.17-35.66a18,18,0,0,0-3.64-3.1L1376,2002.11a7.36,7.36,0,0,0-4.35-1.27h-.15a12.41,12.41,0,0,1-10.71-6.21l-1.47-2.52a8,8,0,0,0-2.58-2.71l-22.55-14.64L1306.63,2023l24.25,12.68a8,8,0,0,0,3.65.89h1.83Z" transform="translate(-326.08 -335)"/><path d="M1550.47,2143.75a2.24,2.24,0,0,1-2-3.26l11-21.23a2.23,2.23,0,0,1,4,2l-11,21.23A2.24,2.24,0,0,1,1550.47,2143.75Z" transform="translate(-326.08 -335)"/><path d="M1290.93,1945.7l43.48,26.28-30.68,52.24-43.48-26.28a16.9,16.9,0,0,1-6.1-22.89l14-23.89A16.4,16.4,0,0,1,1290.93,1945.7Z" transform="translate(-326.08 -335)"/><path d="M1303.73,2026.45a2.24,2.24,0,0,1-1.15-.32l-43.49-26.28a19.17,19.17,0,0,1-6.87-25.93l14-23.89a18.14,18.14,0,0,1,11.29-8.45,19,19,0,0,1,14.54,2.21l43.48,26.28a2.23,2.23,0,0,1,.77,3l-30.68,52.24a2.2,2.2,0,0,1-1.37,1A2.08,2.08,0,0,1,1303.73,2026.45Zm-21.56-81a14.24,14.24,0,0,0-3.54.44,13.74,13.74,0,0,0-8.53,6.39l-14,23.89a14.67,14.67,0,0,0,5.33,19.85l41.55,25.11,28.42-48.39-41.6-25.14A14.68,14.68,0,0,0,1282.17,1945.46Z" transform="translate(-326.08 -335)"/><path d="M1346.55,2033.6a2.17,2.17,0,0,1-1.14-.32,2.22,2.22,0,0,1-.76-3.06l14.79-24.57a2.23,2.23,0,1,1,3.82,2.29l-14.79,24.58A2.25,2.25,0,0,1,1346.55,2033.6Z" transform="translate(-326.08 -335)"/><path d="M1433.88,2054.38a2.23,2.23,0,0,1-1.18-.34l-54.45-34.18a2.23,2.23,0,1,1,2.37-3.78l54.45,34.18a2.23,2.23,0,0,1-1.19,4.12Z" transform="translate(-326.08 -335)"/><path d="M1547.39,2124.79a2.18,2.18,0,0,1-1.17-.34L1525,2111.21a2.23,2.23,0,1,1,2.35-3.79l21.27,13.24a2.23,2.23,0,0,1-1.18,4.13Z" transform="translate(-326.08 -335)"/><path class="cls-1" d="M1298.88,2005.46a2.22,2.22,0,0,1-1.16-.33l-33.14-20.35a2.23,2.23,0,0,1,2.34-3.8l33.13,20.34a2.23,2.23,0,0,1-1.17,4.14Z" transform="translate(-326.08 -335)"/><path class="cls-1" d="M1384.75,2079.83s44.54-5.55,72.9-1.62c22.09,3.07,87.47-12.63,73.81,29.66-2.94,9.11-4.49,15.18-12.59,23.77-4.42,4.7-16.54,14.39-23.41,17.42-33.39,14.75-63.65,20.92-100.61-3.35a37.13,37.13,0,0,0-24.07-5.95C1365.85,2140.26,1383.18,2080.18,1384.75,2079.83Z" transform="translate(-326.08 -335)"/><path d="M1444.62,2164.23c-16.34,0-32.93-4.79-51-16.65A35,35,0,0,0,1371,2142c-5.44.55-22.87,1.15-23.61,1.18a2.23,2.23,0,0,1-.15-4.46c.18,0,18-.63,23.31-1.16a39.51,39.51,0,0,1,25.52,6.31c35.37,23.23,63.9,18.44,98.48,3.17,6.4-2.83,18.3-12.25,22.69-16.91,7.2-7.64,8.91-13,11.5-21.11l.59-1.81c2.53-7.85,2.31-13.6-.68-17.59-6.64-8.85-26.37-8.29-43.78-7.81-11,.31-21.29.6-27.89-1.45-33.65-10.45-71.18,1.49-71.55,1.61-1.86.43-6.71.28-18.08-.49a2.24,2.24,0,0,1-2.07-2.38,2.21,2.21,0,0,1,2.38-2.07c9.88.67,15.45.89,16.58.64,1.39-.46,39-12.45,74.06-1.57,5.89,1.83,15.88,1.55,26.44,1.26,18.5-.53,39.46-1.11,47.48,9.59,3.87,5.16,4.32,12.44,1.35,21.63l-.58,1.8c-2.67,8.38-4.61,14.43-12.5,22.81-4.61,4.9-17,14.8-24.13,17.93C1478.5,2159,1461.7,2164.23,1444.62,2164.23Z" transform="translate(-326.08 -335)"/><path class="cls-1" d="M699.88,1567.72S837,1585.89,882.59,1641.4c57.7,70.3,82.57,174.75,90.65,219.9a101.65,101.65,0,0,1-.84,40l-3.35,15.08a111.72,111.72,0,0,1-114.85,87.28h2.73c-8.8-.45-21.64-3.36-25.37-11.35L817.15,1966l-1.35,9.47c-10.84,70,45.7,165.79,45.7,165.79l-162.23-21.89c-83.35-8.37-162.67-41.21-226.3-95.7-34.55-29.58-61.26-57.25-72.79-90.87-19.56-57.08-17.78-73.34-23.27-142.59-3.73-47.15,10.1-94.25,39.68-131.16C460.05,1604.82,543.71,1547.91,699.88,1567.72Z" transform="translate(-326.08 -335)"/><path d="M861.5,2143.51l-.3,0L699,2121.6c-85.26-8.56-163.94-41.83-227.45-96.21-30.85-26.42-61.1-55.82-73.44-91.85-16.54-48.24-17.91-67.39-21.2-113.66-.62-8.73-1.31-18.42-2.19-29.47-3.84-48.48,10.42-95.62,40.16-132.74,42.58-53.15,126.65-112.3,285.31-92.16h0c5.64.74,138.56,18.92,184.15,74.48,61.2,74.57,85.21,187.94,91.11,220.92a103.39,103.39,0,0,1-.85,40.87l-3.36,15.08a113.57,113.57,0,0,1-117.13,89,2.22,2.22,0,0,1-1-.31c-9.67-1.13-20-4.82-23.52-12.32L818.41,1973l-.4,2.85c-10.6,68.4,44.85,163.38,45.41,164.33a2.23,2.23,0,0,1-1.92,3.37ZM639.09,1565.94c-118.1,0-184.65,49.44-220.76,94.52-29,36.23-42.95,82.25-39.19,129.6.88,11.06,1.57,20.77,2.19,29.5,3.26,45.86,4.61,64.85,21,112.54,12,35,41.76,63.9,72.13,89.9,62.82,53.78,140.64,86.69,225.07,95.17l157.84,21.29c-10.61-19-53.45-100.58-43.74-163.31l1.35-9.45a2.23,2.23,0,0,1,4.17-.75l14.41,26.29c3.19,6.82,14.65,9.73,23.53,10.2a2.36,2.36,0,0,1,.6.11,109.15,109.15,0,0,0,109.22-85.66l3.36-15.08a98.91,98.91,0,0,0,.81-39.12c-5.85-32.7-29.65-145.14-90.17-218.88-44.48-54.2-179.92-72.7-181.29-72.88A480.82,480.82,0,0,0,639.09,1565.94Z" transform="translate(-326.08 -335)"/><path d="M826.46,1992.94a2.21,2.21,0,0,1-2-1.27L786,1911a2.23,2.23,0,1,1,4-1.92l38.42,80.68a2.23,2.23,0,0,1-1.06,3A2.31,2.31,0,0,1,826.46,1992.94Z" transform="translate(-326.08 -335)"/><path d="M721.38,1293l10.07-6.72a21,21,0,0,0,8.12-24.72c-10.12-27.34-47-75-181.21-38.8-136.83,36.9-112.64,256.46,3.93,303.38s156.16-194.29,156.16-194.29Z" transform="translate(-326.08 -335)"/><path class="cls-1" d="M704.56,1298a9.14,9.14,0,0,1,16.93-2.82c10.23,18,15.12,30.48,16.75,38.11,2.2,10.26-7.33,20.53-2.2,31.53s13.2,23.46,13.93,43.25c.72,19.34,20.34,108-48.54,105.19a4.7,4.7,0,0,0-4.93,4.72c.17,13.5.89,50.61,3.89,70.7a22,22,0,0,1-15.85,24.37c-27.57,7.79-78.9,18.75-117.32,6.26a18.65,18.65,0,0,1-11.66-24.07c4.54-12.61,10.88-48,6.73-69.13a170,170,0,0,0,48.62-14c39.37-18.06,58.74-62,47.86-104-2.34-9-7.4-21.84-2.13-35.42,13.6-35,34,.18,34,.18Z" transform="translate(-326.08 -335)"/><path d="M607.74,1627.22c-14.25,0-28.42-1.6-41.2-5.76a20.55,20.55,0,0,1-12.19-10.6,20.8,20.8,0,0,1-.89-16.35c4.39-12.2,10.72-47.24,6.64-67.94a2.23,2.23,0,0,1,2-2.65A169.44,169.44,0,0,0,610,1510.09c37.76-17.33,57.38-60,46.63-101.38-.31-1.2-.67-2.47-1.05-3.8-2.46-8.67-5.83-20.54-1-33,4.17-10.72,9.54-16.41,16-16.91,7.87-.6,15,7,18.86,12.15l13-69.54a11.36,11.36,0,0,1,21-3.51c11.53,20.22,15.61,32.23,17,38.74,1.09,5.08-.33,10-1.71,14.73-1.62,5.62-3.16,10.93-.65,16.32.85,1.82,1.78,3.67,2.74,5.6,4.8,9.6,10.77,21.54,11.4,38.52.09,2.35.48,5.93.94,10.09,2.41,21.84,6.89,62.5-13,83.86-9,9.67-22.07,14.24-38.75,13.55a2.48,2.48,0,0,0-1.88.71,2.37,2.37,0,0,0-.73,1.76c.18,14.59.92,50.67,3.86,70.39a24.29,24.29,0,0,1-17.44,26.85C666.63,1620.46,637,1627.22,607.74,1627.22Zm-42.85-99.16c3.43,21.93-2.74,55.47-7.24,68a16.39,16.39,0,0,0,.71,12.88,16.1,16.1,0,0,0,9.55,8.32c37.93,12.33,89,1.35,116-6.29A19.79,19.79,0,0,0,698.18,1589c-3-20-3.73-56.31-3.91-71a6.85,6.85,0,0,1,2.08-5,7,7,0,0,1,5.17-2c15.35.62,27.21-3.46,35.31-12.13,18.54-19.87,14.21-59.2,11.88-80.34-.49-4.41-.87-7.9-1-10.41-.59-16-6.08-27-10.93-36.69-1-2-1.92-3.85-2.79-5.7-3.22-6.91-1.29-13.57.41-19.45,1.28-4.41,2.48-8.58,1.63-12.55-1.09-5.08-4.68-16.71-16.51-37.48a6.91,6.91,0,0,0-12.8,2.13l-14,74.88a2.23,2.23,0,0,1-4.12.71c-2.46-4.25-10.39-15.12-17.79-14.57-4.57.36-8.66,5.09-12.15,14.08-4.29,11-1.28,21.64,1.13,30.15.39,1.36.76,2.66,1.08,3.9,11.29,43.51-9.36,88.33-49.09,106.56A174.64,174.64,0,0,1,564.89,1528.06Z" transform="translate(-326.08 -335)"/><path d="M503.27,1267.14S435.94,1235,387,1280.91,290.56,1427.82,364,1538c46.16,69.25,63.92,124,70.74,155.1a12.08,12.08,0,0,0,21.86,4.15C486.17,1652.88,540.1,1555,514,1463,478.79,1339.06,503.27,1267.14,503.27,1267.14Z" transform="translate(-326.08 -335)"/><path d="M750.16,1399.45a2.24,2.24,0,0,1-1.15-4.15c22.1-13.26,7.79-50.73,3.82-60l-62.53,31.92a2.23,2.23,0,0,1-2-4l64.61-33a2.19,2.19,0,0,1,1.72-.13,2.22,2.22,0,0,1,1.3,1.14c1,2.06,24,50.66-4.6,67.84A2.3,2.3,0,0,1,750.16,1399.45Z" transform="translate(-326.08 -335)"/><path d="M752,1425.08a2.23,2.23,0,0,1-1.57-3.82l8.81-8.73a7.62,7.62,0,0,0,.83-9.89l-6.06-8.46a2.23,2.23,0,0,1,3.63-2.6l6.06,8.46a12.05,12.05,0,0,1-1.32,15.65l-8.81,8.74A2.25,2.25,0,0,1,752,1425.08Z" transform="translate(-326.08 -335)"/><path d="M681,1432.75a18.63,18.63,0,0,1-4.56-.56c-7.63-1.89-14.18-8.41-19.47-19.38a2.23,2.23,0,0,1,4-1.94c4.67,9.68,10.21,15.4,16.46,17a15.86,15.86,0,0,0,12.18-2.17,2.23,2.23,0,0,1,2.64,3.6A20.44,20.44,0,0,1,681,1432.75Z" transform="translate(-326.08 -335)"/><path class="cls-1" d="M486.35,1261.07s62.56,18.84,36.95,78.85c0,0,28.91-20.86,28.18-53.42s-24.88-43.18-41-42.81S486.35,1261.07,486.35,1261.07Z" transform="translate(-326.08 -335)"/><path d="M523.3,1342.15a2.23,2.23,0,0,1-2-3.11c7.28-17.06,7.91-32.28,1.86-45.23-10.36-22.2-37.14-30.53-37.41-30.61a2.18,2.18,0,0,1-1.39-1.23,2.28,2.28,0,0,1,0-1.86c.36-.74,8.84-18.26,26.12-18.65a42.8,42.8,0,0,1,27.71,9.56c6.86,5.62,15.12,16.33,15.54,35.43.75,33.35-27.87,54.39-29.09,55.27A2.19,2.19,0,0,1,523.3,1342.15Zm-33.69-82.32c7.37,2.76,28.18,12.06,37.53,32.07,5.59,11.95,6,25.55,1.33,40.51,8.21-8.13,21.26-24.47,20.78-45.86-.31-13.78-5.12-24.87-13.92-32.08a39.11,39.11,0,0,0-24.78-8.55C499.39,1246.17,492.31,1255.49,489.61,1259.83Z" transform="translate(-326.08 -335)"/><path d="M367,1774c51.64,31.21,156.65,75.7,325.66,65.38A28.36,28.36,0,0,1,721,1857.67l10.54,42.2a514,514,0,0,0,102,202.32l25.25,30.63a6.94,6.94,0,0,1-5.86,11.34L741.55,2136c-191.28-25.3-339.88-121.23-387.54-296l-12.71-46.62C337.17,1778.23,353.62,1765.91,367,1774Z" transform="translate(-326.08 -335)"/><path class="cls-1" d="M1418.31,585.24h366.92c20.78,0,36.67,16.9,36.67,37.68V729.11c0,20.77-15.89,37.55-36.67,37.55H1772v70.92l-48.28-70.92H1418.31c-20.78,0-38.57-16.78-38.57-37.55V622.92C1379.74,602.14,1397.53,585.24,1418.31,585.24Z" transform="translate(-326.08 -335)"/><path d="M1772,839.81a2.23,2.23,0,0,1-1.84-1l-47.62-69.94H1418.3c-22.11,0-40.79-18.22-40.79-39.78V622.92c0-21.63,18.68-39.91,40.79-39.91h366.93c21.81,0,38.9,17.53,38.9,39.91V729.11c0,22.31-17.09,39.78-38.9,39.78h-11v68.69a2.23,2.23,0,0,1-1.57,2.13A2.51,2.51,0,0,1,1772,839.81ZM1418.3,587.47c-19.69,0-36.33,16.24-36.33,35.45V729.11c0,19.15,16.64,35.32,36.33,35.32h305.38a2.25,2.25,0,0,1,1.85,1l44.2,64.93V766.66a2.23,2.23,0,0,1,2.23-2.23h13.27c19.31,0,34.44-15.51,34.44-35.32V622.92c0-19.88-15.13-35.45-34.44-35.45Z" transform="translate(-326.08 -335)"/><path d="M1556.09,702.27a2.15,2.15,0,0,1-.92-.2l-50.54-22.92a2.23,2.23,0,0,1,0-4.06L1555.17,652a2.23,2.23,0,0,1,1.85,4.06l-46.08,21L1557,698a2.23,2.23,0,0,1-.92,4.26Z" transform="translate(-326.08 -335)"/><path d="M1628.48,702.27a2.23,2.23,0,0,1-.92-4.26l46.07-20.89-46.07-21a2.23,2.23,0,1,1,1.85-4.06l50.53,23.06a2.23,2.23,0,0,1,0,4.06l-50.54,22.92A2.15,2.15,0,0,1,1628.48,702.27Z" transform="translate(-326.08 -335)"/><path d="M1571.27,729.18a2.31,2.31,0,0,1-.8-.15,2.23,2.23,0,0,1-1.28-2.88l39.34-102.92a2.23,2.23,0,1,1,4.17,1.59l-39.34,102.92A2.24,2.24,0,0,1,1571.27,729.18Z" transform="translate(-326.08 -335)"/><path d="M1499.08,1970.49a2.23,2.23,0,0,1-.91-4.27c115.08-51,219.46-133.57,301.85-238.86a2.23,2.23,0,1,1,3.51,2.75C1720.69,1836,1615.73,1919,1500,1970.3A2.21,2.21,0,0,1,1499.08,1970.49Z" transform="translate(-326.08 -335)"/><path d="M1488,2029.27a2.23,2.23,0,0,1-.8-4.31c110.71-43,209.9-111,294.81-202.4a2.23,2.23,0,1,1,3.27,3c-85.38,91.85-185.12,160.33-296.47,203.52A2.32,2.32,0,0,1,1488,2029.27Z" transform="translate(-326.08 -335)"/><path d="M1000.22,410.55a2.23,2.23,0,0,1-.5-4.41c115.23-26.57,229.38-28.35,339.27-5.3a2.23,2.23,0,0,1-.92,4.37c-109.25-22.92-222.75-21.14-337.34,5.28A2.22,2.22,0,0,1,1000.22,410.55Z" transform="translate(-326.08 -335)"/><path d="M1381.82,364a2.77,2.77,0,0,1-.56-.07c-94.16-24.42-192.71-30.59-292.92-18.35a2.23,2.23,0,0,1-.54-4.43c100.77-12.31,199.88-6.1,294.58,18.46a2.23,2.23,0,0,1-.56,4.39Z" transform="translate(-326.08 -335)"/><ellipse cx="1118.94" cy="1640.28" rx="14.92" ry="14.91"/><path d="M407,1104.08a2.24,2.24,0,0,1-1.61-3.78l8.21-8.56a2.23,2.23,0,0,1,3.22,3.08l-8.2,8.57A2.23,2.23,0,0,1,407,1104.08Z" transform="translate(-326.08 -335)"/><path d="M378.3,1134.06a2.2,2.2,0,0,1-1.54-.62,2.23,2.23,0,0,1-.07-3.15l8.21-8.57a2.23,2.23,0,1,1,3.22,3.09l-8.21,8.56A2.2,2.2,0,0,1,378.3,1134.06Z" transform="translate(-326.08 -335)"/><path d="M386.35,1104.54a2.25,2.25,0,0,1-1.56-.64l-8.33-8.2a2.23,2.23,0,1,1,3.13-3.18l8.33,8.2a2.23,2.23,0,0,1-1.57,3.82Z" transform="translate(-326.08 -335)"/><path d="M415.51,1133.23a2.23,2.23,0,0,1-1.57-.64l-8.32-8.19a2.23,2.23,0,1,1,3.13-3.18l8.32,8.19a2.23,2.23,0,0,1-1.56,3.82Z" transform="translate(-326.08 -335)"/><path d="M1427,405.24a21.76,21.76,0,0,1-7.91-1.49,22.17,22.17,0,0,1-12.39-12A22.76,22.76,0,0,1,1418.09,362a21.66,21.66,0,0,1,16.85-.43,22.21,22.21,0,0,1,12.39,12A22.76,22.76,0,0,1,1436,403.31,21.71,21.71,0,0,1,1427,405.24Zm0-40.7a17.34,17.34,0,0,0-7.11,1.54,18.28,18.28,0,0,0-9.08,23.89,17.69,17.69,0,0,0,9.91,9.62,17.22,17.22,0,0,0,13.4-.35,18.28,18.28,0,0,0,9.08-23.89,17.78,17.78,0,0,0-9.91-9.62A17.41,17.41,0,0,0,1427,364.54Zm-8-.49h0Z" transform="translate(-326.08 -335)"/></g></g></svg>