<?xml version="1.0" encoding="utf-8"?>
<!-- Generator: Adobe Illustrator 25.2.3, SVG Export Plug-In . SVG Version: 6.00 Build 0)  -->
<svg version="1.1" id="Layer_1" xmlns="http://www.w3.org/2000/svg" xmlns:xlink="http://www.w3.org/1999/xlink" x="0px" y="0px"
	 viewBox="0 0 750 500" style="enable-background:new 0 0 750 500;" xml:space="preserve">
<style type="text/css">
	.st0{fill:#263238;}
	.st1{fill:#FAF4D3;}
	.st2{fill:#004643;}
	.st3{fill:#C4C4C4;}
	.st4{fill:#BABABA;}
	.st5{fill:#8C8C8C;}
	.st6{fill:#FFFFFF;}
</style>
<g id="freepik--Floor--inject-21">
	<path class="st0" d="M96.5,457.5h-51c-0.3,0-0.5-0.2-0.5-0.5c0-0.3,0.2-0.5,0.5-0.5h51c0.3,0,0.5,0.2,0.5,0.5
		S96.8,457.5,96.5,457.5z"/>
	<path class="st0" d="M722,457.5H105.6c-0.3,0-0.5-0.2-0.5-0.5s0.2-0.5,0.5-0.5H722c0.3,0,0.5,0.2,0.5,0.5S722.3,457.5,722,457.5z"
		/>
</g>
<g id="freepik--Tab--inject-21">
	<path class="st0" d="M83.7,29.2H322c4.7,0,8.5,3.8,8.5,8.5v245.9l0,0H75.2l0,0V37.8C75.2,33.1,79,29.2,83.7,29.2z"/>
	<path class="st0" d="M330.5,284.2H75.2c-0.3,0-0.5-0.2-0.5-0.5V37.8c0-5,4-9,9-9H322c5,0,9,4,9,9v245.9
		C331,284,330.8,284.2,330.5,284.2z M75.7,283.2H330V37.8c0-4.4-3.6-8-8-8H83.7c-4.4,0-8,3.6-8,8L75.7,283.2z"/>
	<path class="st1" d="M89.5,23.4h238.3c4.7,0,8.5,3.8,8.5,8.5c0,0,0,0,0,0.1v245.9l0,0H81l0,0V32C81,27.3,84.8,23.5,89.5,23.4
		C89.5,23.4,89.5,23.4,89.5,23.4z"/>
	<path class="st0" d="M336.3,278.4H81c-0.3,0-0.5-0.2-0.5-0.5V32c0-5,4-9,9-9h238.3c5,0,9,4,9,9l0,0v245.9
		C336.8,278.1,336.6,278.4,336.3,278.4z M81.5,277.4h254.3V32c0-4.4-3.6-8-8-8H89.5c-4.4,0-8,3.6-8,8L81.5,277.4z"/>
	<path class="st2" d="M89.5,23.4h238.3c4.7,0,8.5,3.8,8.5,8.5c0,0,0,0,0,0.1v15.8l0,0H81l0,0V32C81,27.3,84.8,23.5,89.5,23.4
		C89.5,23.4,89.5,23.4,89.5,23.4z"/>
	<path class="st0" d="M336.3,48.2H81c-0.3,0-0.5-0.2-0.5-0.5V32c0-5,4-9,9-9h238.3c5,0,9,4,9,9l0,0v15.8
		C336.8,48,336.6,48.2,336.3,48.2z M81.5,47.2h254.3V32c0-4.4-3.6-8-8-8H89.5c-4.4,0-8,3.6-8,8L81.5,47.2z"/>
	<path class="st1" d="M295.2,36.4c0-2.2-1.8-4-4-4s-4,1.8-4,4s1.8,4,4,4S295.2,38.6,295.2,36.4z"/>
	<path class="st0" d="M291.3,40.8c-2.5,0-4.5-2-4.5-4.5s2-4.5,4.5-4.5c2.5,0,4.5,2,4.5,4.5c0,0,0,0,0,0
		C295.7,38.8,293.7,40.8,291.3,40.8z M291.3,32.9c-1.9,0-3.5,1.5-3.5,3.5c0,1.9,1.5,3.5,3.5,3.5s3.5-1.5,3.5-3.5c0,0,0,0,0,0
		C294.7,34.5,293.2,32.9,291.3,32.9z"/>
	<path class="st1" d="M307.1,36.4c0-2.2-1.8-4-4-4s-4,1.8-4,4s1.8,4,4,4S307.1,38.6,307.1,36.4z"/>
	<path class="st0" d="M303.2,40.8c-2.5,0-4.5-2-4.5-4.5c0-2.5,2-4.5,4.5-4.5c2.5,0,4.5,2,4.5,4.5c0,0,0,0,0,0
		C307.6,38.8,305.6,40.8,303.2,40.8C303.2,40.8,303.2,40.8,303.2,40.8z M303.2,32.9c-1.9,0-3.5,1.6-3.5,3.5s1.6,3.5,3.5,3.5
		c1.9,0,3.5-1.6,3.5-3.5S305.1,32.9,303.2,32.9L303.2,32.9z"/>
	<path class="st0" d="M319,36.4c0-2.2-1.8-4-4-4s-4,1.8-4,4s1.8,4,4,4S319,38.6,319,36.4z"/>
	<path class="st0" d="M315.1,40.8c-2.5,0-4.5-2-4.5-4.5c0-2.5,2-4.5,4.5-4.5c2.5,0,4.5,2,4.5,4.5c0,0,0,0,0,0
		C319.5,38.8,317.5,40.8,315.1,40.8C315.1,40.8,315.1,40.8,315.1,40.8z M315.1,32.9c-1.9,0-3.5,1.6-3.5,3.5s1.6,3.5,3.5,3.5
		c1.9,0,3.5-1.6,3.5-3.5S317,32.9,315.1,32.9L315.1,32.9z"/>
	<path class="st0" d="M126,63.8h-18.8c-0.8,0-1.5-0.7-1.5-1.5s0.7-1.5,1.5-1.5H126c0.8,0,1.5,0.7,1.5,1.5S126.8,63.8,126,63.8
		L126,63.8z"/>
	<path class="st3" d="M177.7,74.8h-70.5c-0.8,0-1.5-0.7-1.5-1.5s0.7-1.5,1.5-1.5h70.5c0.8,0,1.5,0.7,1.5,1.5S178.5,74.8,177.7,74.8z
		"/>
	<path class="st3" d="M286.8,74.8h-70.5c-0.8,0-1.5-0.7-1.5-1.5s0.7-1.5,1.5-1.5h70.5c0.8,0,1.5,0.7,1.5,1.5S287.6,74.8,286.8,74.8z
		"/>
	<path class="st0" d="M210.2,74.8h-27.9c-0.8,0-1.5-0.7-1.5-1.5s0.7-1.5,1.5-1.5h27.9c0.8,0,1.5,0.7,1.5,1.5S211,74.8,210.2,74.8z"
		/>
	<path class="st0" d="M147.8,85.8h-40.6c-0.8,0-1.5-0.7-1.5-1.5s0.7-1.5,1.5-1.5h40.6c0.8,0,1.5,0.7,1.5,1.5S148.6,85.8,147.8,85.8z
		"/>
	<path class="st0" d="M193.4,85.8h-40.6c-0.8,0-1.5-0.7-1.5-1.5s0.7-1.5,1.5-1.5h40.6c0.8,0,1.5,0.7,1.5,1.5S194.3,85.8,193.4,85.8z
		"/>
	<path class="st0" d="M239.1,85.8h-40.6c-0.8,0-1.5-0.7-1.5-1.5s0.7-1.5,1.5-1.5h40.6c0.8,0,1.5,0.7,1.5,1.5S239.9,85.8,239.1,85.8z
		"/>
	<path class="st0" d="M261.4,85.8h-17.2c-0.8,0-1.5-0.7-1.5-1.5s0.7-1.5,1.5-1.5h17.2c0.8,0,1.5,0.7,1.5,1.5S262.3,85.8,261.4,85.8z
		"/>
	<path class="st0" d="M149.8,63.8H131c-0.8,0-1.5-0.7-1.5-1.5s0.7-1.5,1.5-1.5h18.8c0.8,0,1.5,0.7,1.5,1.5S150.6,63.8,149.8,63.8
		L149.8,63.8z"/>
	<path class="st0" d="M261.4,63.8h-18.8c-0.8,0-1.5-0.7-1.5-1.5s0.7-1.5,1.5-1.5h18.8c0.8,0,1.5,0.7,1.5,1.5S262.3,63.8,261.4,63.8z
		"/>
	<path class="st3" d="M236.6,63.8h-18.8c-0.8,0-1.5-0.7-1.5-1.5s0.7-1.5,1.5-1.5h18.8c0.8,0,1.5,0.7,1.5,1.5S237.4,63.8,236.6,63.8z
		"/>
	<path class="st0" d="M209.7,63.8h-54.8c-0.8,0-1.5-0.7-1.5-1.5s0.7-1.5,1.5-1.5h54.8c0.8,0,1.5,0.7,1.5,1.5S210.5,63.8,209.7,63.8z
		"/>
	<path class="st0" d="M126,131.1h-18.8c-0.8,0-1.5-0.7-1.5-1.5s0.7-1.5,1.5-1.5H126c0.8,0,1.5,0.7,1.5,1.5S126.8,131.1,126,131.1
		L126,131.1z"/>
	<path class="st3" d="M177.7,142.1h-70.5c-0.8,0-1.5-0.7-1.5-1.5s0.7-1.5,1.5-1.5h70.5c0.8,0,1.5,0.7,1.5,1.5
		S178.5,142.1,177.7,142.1z"/>
	<path class="st0" d="M286.8,142.1h-70.5c-0.8,0-1.5-0.7-1.5-1.5s0.7-1.5,1.5-1.5h70.5c0.8,0,1.5,0.7,1.5,1.5
		S287.6,142.1,286.8,142.1z"/>
	<path class="st0" d="M210.2,142.1h-27.9c-0.8,0-1.5-0.7-1.5-1.5s0.7-1.5,1.5-1.5h27.9c0.8,0,1.5,0.7,1.5,1.5S211,142.1,210.2,142.1
		z"/>
	<path class="st0" d="M147.8,153.2h-40.6c-0.8,0-1.5-0.7-1.5-1.5s0.7-1.5,1.5-1.5h40.6c0.8,0,1.5,0.7,1.5,1.5
		S148.6,153.2,147.8,153.2z"/>
	<path class="st0" d="M193.4,153.2h-40.6c-0.8,0-1.5-0.7-1.5-1.5s0.7-1.5,1.5-1.5h40.6c0.8,0,1.5,0.7,1.5,1.5
		S194.3,153.2,193.4,153.2z"/>
	<path class="st3" d="M239.1,153.2h-40.6c-0.8,0-1.5-0.7-1.5-1.5s0.7-1.5,1.5-1.5h40.6c0.8,0,1.5,0.7,1.5,1.5
		S239.9,153.2,239.1,153.2z"/>
	<path class="st0" d="M261.4,153.2h-17.2c-0.8,0-1.5-0.7-1.5-1.5s0.7-1.5,1.5-1.5h17.2c0.8,0,1.5,0.7,1.5,1.5
		S262.3,153.2,261.4,153.2z"/>
	<path class="st0" d="M149.8,131.1H131c-0.8,0-1.5-0.7-1.5-1.5s0.7-1.5,1.5-1.5h18.8c0.8,0,1.5,0.7,1.5,1.5S150.6,131.1,149.8,131.1
		L149.8,131.1z"/>
	<path class="st0" d="M261.4,131.1h-18.8c-0.8,0-1.5-0.7-1.5-1.5s0.7-1.5,1.5-1.5h18.8c0.8,0,1.5,0.7,1.5,1.5
		S262.3,131.1,261.4,131.1z"/>
	<path class="st3" d="M236.6,131.1h-18.8c-0.8,0-1.5-0.7-1.5-1.5s0.7-1.5,1.5-1.5h18.8c0.8,0,1.5,0.7,1.5,1.5
		S237.4,131.1,236.6,131.1z"/>
	<path class="st0" d="M209.7,131.1h-54.8c-0.8,0-1.5-0.7-1.5-1.5s0.7-1.5,1.5-1.5h54.8c0.8,0,1.5,0.7,1.5,1.5
		S210.5,131.1,209.7,131.1z"/>
	<path class="st0" d="M126,230.4h-18.8c-0.8,0-1.5-0.7-1.5-1.5s0.7-1.5,1.5-1.5H126c0.8,0,1.5,0.7,1.5,1.5S126.8,230.4,126,230.4
		L126,230.4z"/>
	<path class="st3" d="M177.7,241.4h-70.5c-0.8,0-1.5-0.7-1.5-1.5s0.7-1.5,1.5-1.5h70.5c0.8,0,1.5,0.7,1.5,1.5
		S178.5,241.4,177.7,241.4z"/>
	<path class="st0" d="M286.8,241.4h-70.5c-0.8,0-1.5-0.7-1.5-1.5s0.7-1.5,1.5-1.5h70.5c0.8,0,1.5,0.7,1.5,1.5
		S287.6,241.4,286.8,241.4z"/>
	<path class="st0" d="M210.2,241.4h-27.9c-0.8,0-1.5-0.7-1.5-1.5s0.7-1.5,1.5-1.5h27.9c0.8,0,1.5,0.7,1.5,1.5S211,241.4,210.2,241.4
		z"/>
	<path class="st0" d="M147.8,252.4h-40.6c-0.8,0-1.5-0.7-1.5-1.5s0.7-1.5,1.5-1.5h40.6c0.8,0,1.5,0.7,1.5,1.5
		S148.6,252.4,147.8,252.4z"/>
	<path class="st0" d="M193.4,252.4h-40.6c-0.8,0-1.5-0.7-1.5-1.5s0.7-1.5,1.5-1.5h40.6c0.8,0,1.5,0.7,1.5,1.5
		S194.3,252.4,193.4,252.4z"/>
	<path class="st3" d="M239.1,252.4h-40.6c-0.8,0-1.5-0.7-1.5-1.5s0.7-1.5,1.5-1.5h40.6c0.8,0,1.5,0.7,1.5,1.5
		S239.9,252.4,239.1,252.4z"/>
	<path class="st0" d="M261.4,252.4h-17.2c-0.8,0-1.5-0.7-1.5-1.5s0.7-1.5,1.5-1.5h17.2c0.8,0,1.5,0.7,1.5,1.5
		S262.3,252.4,261.4,252.4z"/>
	<path class="st0" d="M149.8,230.4H131c-0.8,0-1.5-0.7-1.5-1.5s0.7-1.5,1.5-1.5h18.8c0.8,0,1.5,0.7,1.5,1.5S150.6,230.4,149.8,230.4
		L149.8,230.4z"/>
	<path class="st0" d="M261.4,230.4h-18.8c-0.8,0-1.5-0.7-1.5-1.5s0.7-1.5,1.5-1.5h18.8c0.8,0,1.5,0.7,1.5,1.5
		S262.3,230.4,261.4,230.4z"/>
	<path class="st3" d="M236.6,230.4h-18.8c-0.8,0-1.5-0.7-1.5-1.5s0.7-1.5,1.5-1.5h18.8c0.8,0,1.5,0.7,1.5,1.5
		S237.4,230.4,236.6,230.4z"/>
	<path class="st0" d="M209.7,230.4h-54.8c-0.8,0-1.5-0.7-1.5-1.5s0.7-1.5,1.5-1.5h54.8c0.8,0,1.5,0.7,1.5,1.5
		S210.5,230.4,209.7,230.4z"/>
	<path class="st0" d="M231.5,97.4h-18.8c-0.8,0-1.5-0.7-1.5-1.5s0.7-1.5,1.5-1.5h18.8c0.8,0,1.5,0.7,1.5,1.5S232.3,97.4,231.5,97.4z
		"/>
	<path class="st0" d="M206.6,97.4h-18.8c-0.8,0-1.5-0.7-1.5-1.5s0.7-1.5,1.5-1.5h18.8c0.8,0,1.5,0.7,1.5,1.5S207.5,97.4,206.6,97.4z
		"/>
	<path class="st0" d="M179.8,97.4H125c-0.8,0-1.5-0.7-1.5-1.5s0.7-1.5,1.5-1.5h54.8c0.8,0,1.5,0.7,1.5,1.5S180.6,97.4,179.8,97.4
		L179.8,97.4z"/>
	<path class="st0" d="M231.5,117.2h-18.8c-0.8,0-1.5-0.7-1.5-1.5s0.7-1.5,1.5-1.5h18.8c0.8,0,1.5,0.7,1.5,1.5
		S232.3,117.2,231.5,117.2z"/>
	<path class="st0" d="M206.6,117.2h-18.8c-0.8,0-1.5-0.7-1.5-1.5s0.7-1.5,1.5-1.5h18.8c0.8,0,1.5,0.7,1.5,1.5
		S207.5,117.2,206.6,117.2z"/>
	<path class="st3" d="M179.8,117.2H125c-0.8,0-1.5-0.7-1.5-1.5s0.7-1.5,1.5-1.5h54.8c0.8,0,1.5,0.7,1.5,1.5S180.6,117.2,179.8,117.2
		L179.8,117.2z"/>
	<path class="st0" d="M143.7,107.3H125c-0.8,0-1.5-0.7-1.5-1.5s0.7-1.5,1.5-1.5h18.8c0.8,0,1.5,0.7,1.5,1.5S144.6,107.3,143.7,107.3
		L143.7,107.3z"/>
	<path class="st0" d="M168.6,107.3h-18.8c-0.8,0-1.5-0.7-1.5-1.5s0.7-1.5,1.5-1.5h18.8c0.8,0,1.5,0.7,1.5,1.5
		S169.4,107.3,168.6,107.3z"/>
	<path class="st3" d="M231.5,107.3h-54.8c-0.8,0-1.5-0.7-1.5-1.5s0.7-1.5,1.5-1.5h54.8c0.8,0,1.5,0.7,1.5,1.5
		S232.3,107.3,231.5,107.3z"/>
	<path class="st0" d="M231.5,166.5h-18.8c-0.8,0-1.5-0.7-1.5-1.5s0.7-1.5,1.5-1.5h18.8c0.8,0,1.5,0.7,1.5,1.5
		S232.3,166.5,231.5,166.5z"/>
	<path class="st0" d="M206.6,166.5h-18.8c-0.8,0-1.5-0.7-1.5-1.5s0.7-1.5,1.5-1.5h18.8c0.8,0,1.5,0.7,1.5,1.5
		S207.5,166.5,206.6,166.5z"/>
	<path class="st0" d="M179.8,166.5H125c-0.8,0-1.5-0.7-1.5-1.5s0.7-1.5,1.5-1.5h54.8c0.8,0,1.5,0.7,1.5,1.5S180.6,166.5,179.8,166.5
		L179.8,166.5z"/>
	<path class="st0" d="M231.5,186.3h-18.8c-0.8,0-1.5-0.7-1.5-1.5s0.7-1.5,1.5-1.5h18.8c0.8,0,1.5,0.7,1.5,1.5
		S232.3,186.3,231.5,186.3z"/>
	<path class="st0" d="M206.6,186.3h-18.8c-0.8,0-1.5-0.7-1.5-1.5s0.7-1.5,1.5-1.5h18.8c0.8,0,1.5,0.7,1.5,1.5
		S207.5,186.3,206.6,186.3z"/>
	<path class="st3" d="M179.8,186.3H125c-0.8,0-1.5-0.7-1.5-1.5s0.7-1.5,1.5-1.5h54.8c0.8,0,1.5,0.7,1.5,1.5S180.6,186.3,179.8,186.3
		L179.8,186.3z"/>
	<path class="st0" d="M143.7,176.4H125c-0.8,0-1.5-0.7-1.5-1.5s0.7-1.5,1.5-1.5h18.8c0.8,0,1.5,0.7,1.5,1.5S144.6,176.4,143.7,176.4
		L143.7,176.4z"/>
	<path class="st0" d="M168.6,176.4h-18.8c-0.8,0-1.5-0.7-1.5-1.5s0.7-1.5,1.5-1.5h18.8c0.8,0,1.5,0.7,1.5,1.5
		S169.4,176.4,168.6,176.4z"/>
	<path class="st3" d="M231.5,176.4h-54.8c-0.8,0-1.5-0.7-1.5-1.5s0.7-1.5,1.5-1.5h54.8c0.8,0,1.5,0.7,1.5,1.5
		S232.3,176.4,231.5,176.4z"/>
	<path class="st0" d="M143.7,197.9H125c-0.8,0-1.5-0.7-1.5-1.5s0.7-1.5,1.5-1.5h18.8c0.8,0,1.5,0.7,1.5,1.5S144.6,197.9,143.7,197.9
		L143.7,197.9z"/>
	<path class="st0" d="M168.6,197.9h-18.8c-0.8,0-1.5-0.7-1.5-1.5s0.7-1.5,1.5-1.5h18.8c0.8,0,1.5,0.7,1.5,1.5
		S169.4,197.9,168.6,197.9z"/>
	<path class="st3" d="M231.5,197.9h-54.8c-0.8,0-1.5-0.7-1.5-1.5s0.7-1.5,1.5-1.5h54.8c0.8,0,1.5,0.7,1.5,1.5
		S232.3,197.9,231.5,197.9z"/>
	<path class="st0" d="M143.7,217.6H125c-0.8,0-1.5-0.7-1.5-1.5s0.7-1.5,1.5-1.5h18.8c0.8,0,1.5,0.7,1.5,1.5S144.6,217.6,143.7,217.6
		L143.7,217.6z"/>
	<path class="st0" d="M168.6,217.6h-18.8c-0.8,0-1.5-0.7-1.5-1.5s0.7-1.5,1.5-1.5h18.8c0.8,0,1.5,0.7,1.5,1.5
		S169.4,217.6,168.6,217.6z"/>
	<path class="st3" d="M231.5,217.6h-54.8c-0.8,0-1.5-0.7-1.5-1.5s0.7-1.5,1.5-1.5h54.8c0.8,0,1.5,0.7,1.5,1.5
		S232.3,217.6,231.5,217.6z"/>
	<path class="st0" d="M231.5,207.7h-18.8c-0.8,0-1.5-0.7-1.5-1.5s0.7-1.5,1.5-1.5h18.8c0.8,0,1.5,0.7,1.5,1.5
		S232.3,207.7,231.5,207.7z"/>
	<path class="st0" d="M206.6,207.7h-18.8c-0.8,0-1.5-0.7-1.5-1.5s0.7-1.5,1.5-1.5h18.8c0.8,0,1.5,0.7,1.5,1.5
		S207.5,207.7,206.6,207.7z"/>
	<path class="st3" d="M179.8,207.7H125c-0.8,0-1.5-0.7-1.5-1.5s0.7-1.5,1.5-1.5h54.8c0.8,0,1.5,0.7,1.5,1.5S180.6,207.7,179.8,207.7
		L179.8,207.7z"/>
	<rect x="94.2" y="58.5" class="st0" width="6" height="6.8"/>
	<rect x="94.2" y="69.6" class="st0" width="6" height="6.8"/>
	<rect x="94.2" y="80.7" class="st0" width="6" height="6.8"/>
	<rect x="94.2" y="91.8" class="st0" width="6" height="6.8"/>
	<rect x="94.2" y="103" class="st0" width="6" height="6.8"/>
	<rect x="94.2" y="114.1" class="st0" width="6" height="6.8"/>
	<rect x="94.2" y="125.2" class="st0" width="6" height="6.8"/>
	<rect x="94.2" y="136.3" class="st0" width="6" height="6.8"/>
	<rect x="94.2" y="147.5" class="st0" width="6" height="6.8"/>
	<rect x="94.2" y="158.6" class="st0" width="6" height="6.8"/>
	<rect x="94.2" y="169.7" class="st0" width="6" height="6.8"/>
	<rect x="94.2" y="180.8" class="st0" width="6" height="6.8"/>
	<rect x="94.2" y="192" class="st0" width="6" height="6.8"/>
	<rect x="94.2" y="203.1" class="st0" width="6" height="6.8"/>
	<rect x="94.2" y="214.2" class="st0" width="6" height="6.8"/>
	<rect x="94.2" y="225.4" class="st0" width="6" height="6.8"/>
	<rect x="94.2" y="236.5" class="st0" width="6" height="6.8"/>
	<rect x="94.2" y="247.6" class="st0" width="6" height="6.8"/>
</g>
<g id="freepik--character-3--inject-21">
	<path class="st4" d="M515.4,227l5.9,22.4c-3,3.7-5.7,7.6-8.2,11.5c-4.7,7.3-13.4,21-17.2,24.8s-5.4,4.5-5.4,4.5s-8.5-0.7-12.3,0.5
		s-8.2,5-9,5.7s29.2,0,29.2,0s1.9,0,3.8-3.1s22-15.8,28.8-25.3s9-15.6,9-15.6s-15.4-21.4-17-23.6S515.9,224.4,515.4,227z"/>
	<path class="st0" d="M477.6,297.1c-8.6,0-8.7-0.3-8.8-0.6c-0.1-0.2,0-0.4,0.1-0.6c0.6-0.6,5.2-4.5,9.2-5.8
		c3.6-1.1,11.1-0.6,12.3-0.5c1.9-1.2,3.6-2.7,5.2-4.3c3.5-3.5,11.5-15.9,16.2-23.2l0.9-1.4c2.5-3.9,5.2-7.7,8.1-11.4l-5.8-22.1
		c0-0.1,0-0.1,0-0.2c0.1-0.7,0.7-1.3,1.4-1.5c2-0.5,5.6,1.4,7,3.1c1.6,2.1,16.4,22.7,17,23.6c0.1,0.1,0.1,0.3,0.1,0.5
		c-0.1,0.2-2.2,6.3-9,15.7c-4.3,5.9-13.6,13-20.5,18.3c-4.1,3.1-7.6,5.8-8.3,6.9c-2,3.3-4.1,3.3-4.2,3.3
		C488.5,297,481.9,297.1,477.6,297.1z M470.3,296c3.7,0.2,18.3,0,28.2-0.2c0,0,1.7-0.1,3.4-2.8c0.8-1.2,4-3.7,8.5-7.2
		c6.8-5.2,16.1-12.3,20.3-18.1c6-8.2,8.3-14,8.8-15.2c-1.6-2.3-15.3-21.4-16.8-23.4c-1.2-1.5-4.4-3.2-6-2.8
		c-0.3,0.1-0.6,0.3-0.6,0.6l5.9,22.3c0,0.2,0,0.3-0.1,0.4c-2.9,3.7-5.7,7.5-8.2,11.5l-0.9,1.4c-4.8,7.4-12.8,19.8-16.4,23.4
		c-3.8,3.8-5.5,4.6-5.6,4.6c-0.1,0-0.2,0-0.2,0c-0.1,0-8.4-0.7-12.1,0.5C475.4,292,471.9,294.7,470.3,296z"/>
	<path class="st2" d="M536.3,247.4c-4.6-6.5-12.2-17.1-13.3-18.5c-1.7-2.1-7.1-4.5-7.5-1.9l5.1,19.3
		C523.8,247.7,530.5,249.8,536.3,247.4z"/>
	<path class="st0" d="M530.4,249c-3.5-0.1-6.9-0.8-10.1-2.2c-0.1-0.1-0.2-0.2-0.3-0.3l-5.1-19.3c0-0.1,0-0.1,0-0.2
		c0.1-0.7,0.7-1.3,1.4-1.5c2-0.5,5.6,1.4,7,3.1c1.1,1.5,8.9,12.2,13.4,18.5c0.1,0.1,0.1,0.3,0.1,0.4c0,0.1-0.1,0.3-0.3,0.3
		C534.6,248.6,532.5,249,530.4,249z M520.9,246c3.3,1.4,9.3,3.1,14.6,1.2c-4.5-6.3-11.9-16.6-13-18s-4.4-3.2-6-2.8
		c-0.3,0.1-0.6,0.3-0.6,0.6L520.9,246z"/>
	<path class="st0" d="M474.6,297.3c-0.4,0-2.5,0-3.3-1c-0.2-0.3-0.3-0.6-0.3-1c0.2-1.2,2-1.8,5.4-1.8c0.8-0.2,1.5-0.4,2.2-0.7
		c0.9-0.4,1.8-0.7,2.7-0.9c2.2-0.1,4.3,0,6.5,0.2c0.3,0,0.5,0.3,0.5,0.5c0,0,0,0,0,0c0,0.3-0.3,0.5-0.5,0.5
		c-2.1-0.2-4.2-0.3-6.2-0.2c-0.8,0.2-1.7,0.5-2.5,0.8c-0.8,0.4-1.7,0.7-2.6,0.8c-4.2,0-4.4,0.9-4.5,1c0,0.1,0,0.2,0.1,0.2
		c0.8,0.5,1.6,0.7,2.5,0.6c0.3,0,0.5,0.2,0.5,0.5C475.1,297,474.9,297.3,474.6,297.3C474.6,297.3,474.6,297.3,474.6,297.3z"/>
	<path class="st0" d="M543,276.9c0,0-26.3,71.4-27.3,75.7s-4.6,56.1-5,57.1s-3.3,28.6-3.3,28.6c-2.8,2.8-5.8,5.5-9,8
		c-3.6,2.7-11.3,3.7-12.6,7.3s7.6,3.7,9,3.3s26.2-1.3,26.2-1.3s7.7,1.7,8.3-2S527,435,527,435s3.3-8.6,4-11.3s0.7-6.3,1-7.3
		s14-57.1,14-57.1l23.9-43l8.3,3.6l18.6,42.6l39.5,64.8l-3,5.6l3,7.3c0,0-4.3,14.6-3,16.3s24.6,0,24.6,0s2.3,0.7,2.7-3.3
		c0.2-2.6-0.2-5.2-1-7.6c0,0-2.7-5.6-3-6.6s0-5.3-0.3-7.6s-3.7-7.3-4.7-10S626.7,356,626.7,356l-15.6-84.7l-63.8-2.3L543,276.9z"/>
	<path class="st0" d="M640.9,457.9c-4.1,0-7.3-0.2-7.9-0.9c-1.4-1.7,1.8-12.9,2.8-16.6l-2.9-7.1c-0.1-0.1-0.1-0.3,0-0.4l2.8-5.4
		l-39.4-64.5l-18.6-42.5l-7.7-3.4l-23.7,42.5c-0.8,3.1-13.6,56.1-14,57.1c-0.2,0.8-0.3,1.6-0.3,2.4c-0.1,1.7-0.3,3.3-0.7,4.9
		c-0.6,2.5-3.5,10.1-4,11.2c0.3,1.6,3,15.1,2.3,18.6c-0.1,0.8-0.6,1.5-1.3,1.9c-2.3,1.5-7,0.6-7.6,0.5c-10,0.4-25.1,1.1-26.1,1.3
		s-7.3,0.4-9.2-1.7c-0.6-0.6-0.7-1.5-0.4-2.3c0.9-2.5,4.2-3.8,7.5-5c1.9-0.6,3.6-1.5,5.3-2.5c3.1-2.4,6-5,8.8-7.8
		c0.4-3.5,3-27.5,3.3-28.5c0.1-0.5,0.8-9,1.5-17.9c1.3-16.2,2.9-36.5,3.5-39.2c1-4.3,26.2-72.9,27.3-75.8c0,0,0,0,0-0.1l4.3-8
		c0.1-0.2,0.3-0.3,0.5-0.3l63.8,2.3c0.2,0,0.4,0.2,0.5,0.4l15.6,84.6c0.2,0.5,23.9,62.7,24.9,65.4c0.6,1.4,1.3,2.7,2,4
		c1.2,2.3,2.5,4.6,2.7,6.1c0.1,1.5,0.2,2.9,0.2,4.4c0,1.1,0,2.1,0.1,3.2c0.2,0.8,2,4.6,3,6.6c0.8,2.5,1.2,5.2,1,7.9
		c-0.1,1.7-0.6,2.8-1.5,3.4c-0.5,0.3-1.1,0.5-1.7,0.4C654.6,457.4,646.8,457.9,640.9,457.9z M633.9,433.1l2.9,7.1c0,0.1,0,0.2,0,0.3
		c-2,6.9-3.8,14.9-3.1,15.8c1,0.9,13,0.6,24.2-0.2h0.2c0.3,0.1,0.7,0,1-0.2c0.7-0.7,1-1.7,1-2.7c0.1-2.5-0.2-5-1-7.4
		c-0.1-0.2-2.7-5.6-3-6.7c-0.2-1.1-0.3-2.3-0.2-3.5c0-1.4,0-2.8-0.2-4.2c-0.2-1.3-1.5-3.6-2.6-5.7c-0.8-1.3-1.5-2.7-2-4.1
		c-1-2.6-24.7-64.8-24.9-65.4l-15.4-84.3l-63.1-2.3l-4.1,7.6c-0.7,1.9-26.3,71.4-27.2,75.6c-0.6,2.6-2.3,23.7-3.5,39
		c-1,12.9-1.4,17.8-1.5,18.1c-0.2,0.9-2.1,17.5-3.3,28.5c0,0.1-0.1,0.2-0.1,0.3c-2.8,2.8-5.8,5.5-9,8c-1.7,1.1-3.6,2-5.5,2.6
		c-3,1.2-6.2,2.4-6.9,4.4c-0.2,0.4-0.1,0.9,0.2,1.3c1.4,1.6,7,1.7,8.2,1.4c1.3-0.3,23.8-1.2,26.4-1.3h0.1c0,0,4.8,1,6.9-0.4
		c0.4-0.3,0.8-0.7,0.8-1.2c0.6-3.5-2.3-18.3-2.3-18.4c0-0.1,0-0.2,0-0.3c0-0.1,3.3-8.6,4-11.2c0.3-1.6,0.6-3.2,0.7-4.8
		c0-0.9,0.2-1.7,0.3-2.6c0.3-0.9,9.2-37.7,14-57.1c0,0,0-0.1,0-0.1l23.9-43c0.1-0.2,0.4-0.3,0.6-0.2l8.3,3.6
		c0.1,0.1,0.2,0.1,0.3,0.3l18.6,42.6l39.5,64.7c0.1,0.2,0.1,0.3,0,0.5L633.9,433.1z M507.4,438.4L507.4,438.4z"/>
	<path class="st4" d="M518,192.6c0,0-9.9,4.7-10.6,19.3s16.5,24.8,16.5,24.8s9.4,11.1,15.6,17.9c6.1,6.8,3.5,7.9,4,9.1
		s-0.4,13.2-0.4,13.2s27.6,7.1,44.3,5.7s24.5-5.9,24.5-5.9s1.8-7.2-1.3-16.9s-6-14.7-6.3-16.8s-12.3-38.9-12.3-38.9s16.3,2.8,24,3.5
		l7.8,0.7c0,0,4.7,21.5,8.2,32.8s5.4,24.3,7.5,25.7s6.6,1.4,8,2.1s3.8,5.9,5.9,7.1s2.1-1.2,2.1-1.2s2.6,0.2,2.8-1.2s3.1-4.5,1.4-7.3
		s-17.2-7.5-17.2-7.5s-2.1-52.6-3.3-59.2l-1.2-6.6c0,0-17.5-9-22.4-10.4s-18.6-5-18.6-5s-10.4-7.8-23.1-6.6
		c-8.9,0.9-17.6,2.7-26.1,5.2c-2.4,0.7-7.5,4-7.5,4L518,192.6z"/>
	<path class="st0" d="M582.6,283.3c-16.6,0-39.5-5.8-39.7-5.9c-0.2-0.1-0.4-0.3-0.4-0.5c0.4-5,0.8-12.3,0.5-13
		c-0.1-0.4-0.1-0.8,0-1.2c0.2-1,0.6-2.8-3.9-7.8c-5.8-6.5-14.8-17-15.5-17.9c-1.2-0.8-17.4-10.9-16.7-25.2
		c0.7-14.5,10.4-19.5,10.9-19.8l22.4-12.3c0.2-0.1,5.2-3.3,7.6-4c8.6-2.6,17.4-4.3,26.3-5.2c12.2-1.1,22.4,5.9,23.4,6.6
		c1.2,0.3,13.9,3.6,18.5,4.9c4.9,1.4,21.8,10,22.5,10.4c0.1,0.1,0.2,0.2,0.3,0.4l1.2,6.6c1.1,6.4,3.1,53.9,3.3,58.9
		c2.7,0.8,15.5,4.9,17.2,7.7c1.3,2.3,0.1,4.6-0.7,6.2c-0.3,0.4-0.5,0.9-0.6,1.4c-0.2,1.3-1.7,1.6-2.9,1.6l0,0
		c-0.1,0.5-0.4,1-0.8,1.3c-0.7,0.3-1.4,0.2-2-0.2c-1.3-0.7-2.5-2.5-3.7-4.3c-0.6-1-1.3-2-2.2-2.8c-0.9-0.3-1.8-0.5-2.7-0.6
		c-1.9-0.3-4-0.6-5.4-1.6s-2.3-4.8-4.1-12.3c-1-4.3-2.2-9.1-3.6-13.7c-3.3-10.4-7.5-29.6-8.2-32.4l-7.4-0.7
		c-6.7-0.6-19.9-2.8-23.3-3.4c1.8,5.5,11.8,36.2,12,38.2c0.4,1.6,1,3.1,1.7,4.6c1.2,2.9,2.9,6.8,4.6,12.1c3.1,9.7,1.4,16.8,1.3,17.1
		c0,0.1-0.1,0.2-0.2,0.3c-0.3,0.2-8.1,4.6-24.7,6C585.9,283.2,584.3,283.3,582.6,283.3z M543.5,276.5c3.5,0.9,28.4,6.8,43.8,5.5
		c15-1.3,22.8-5.1,24.1-5.7c0.9-5.5,0.4-11.1-1.3-16.4c-1.7-5.3-3.3-9.2-4.5-12.1c-0.8-1.5-1.3-3.2-1.8-4.9
		c-0.2-1.6-8.1-26.1-12.2-38.8c-0.1-0.2,0-0.3,0.1-0.5c0.1-0.1,0.3-0.2,0.5-0.2c0.2,0,16.3,2.8,24,3.5l7.8,0.7
		c0.2,0,0.4,0.2,0.4,0.4c0,0.2,4.8,21.6,8.2,32.7c1.4,4.6,2.6,9.4,3.6,13.7c1.3,5.6,2.6,11,3.7,11.7s3.3,1.1,5,1.4
		c1,0.1,2,0.3,3,0.7c0.8,0.4,1.6,1.7,2.6,3.1s2.3,3.4,3.3,4c0.5,0.3,0.8,0.3,1,0.2s0.4-0.7,0.4-1c0-0.1,0.1-0.3,0.2-0.4
		c0.1-0.1,0.2-0.1,0.4-0.1c0.6,0,2.2,0,2.3-0.8c0.2-0.6,0.4-1.2,0.7-1.7c0.8-1.5,1.8-3.5,0.8-5.3c-1.1-2-10.8-5.5-16.9-7.3
		c-0.2-0.1-0.3-0.2-0.3-0.5c0-0.5-2.1-52.6-3.3-59.1l-1.1-6.4c-2-1-17.5-8.9-22.1-10.2c-4.9-1.4-18.5-4.9-18.6-4.9
		c-0.1,0-0.1,0-0.2-0.1c-0.1-0.1-10.4-7.7-22.8-6.5c-8.8,0.9-17.6,2.6-26.1,5.2c-2.3,0.7-7.4,3.9-7.4,4L518.2,193l0,0
		c-0.1,0.1-9.6,4.8-10.3,18.9s16.1,24.2,16.3,24.3c0,0,0.1,0.1,0.1,0.1c0.1,0.1,9.5,11.2,15.5,17.9c4.8,5.4,4.4,7.5,4.1,8.7
		c-0.1,0.2-0.1,0.4,0,0.6C544.4,264.7,543.7,273.8,543.5,276.5L543.5,276.5z M518,192.5L518,192.5z"/>
	<path class="st0" d="M655.7,275.3c-0.2,0-0.4-0.2-0.5-0.4l-1.6-6.4c-1.4-0.9-2.9-1.6-4.5-2.2c-0.3,0-0.5-0.2-0.5-0.5
		c0-0.3,0.2-0.5,0.5-0.5c1,0,4.2,1.9,5.2,2.4c0.1,0.1,0.2,0.2,0.2,0.3l1.7,6.6c0.1,0.3-0.1,0.5-0.4,0.6L655.7,275.3z"/>
	<path class="st2" d="M604.3,243c-0.2-2.1-12.3-38.9-12.3-38.9s7.9,1.4,15.3,2.4l2.8-25.5c-5.8-1.6-12.9-3.4-12.9-3.4
		s-10.4-7.8-23.1-6.6c-8.9,0.9-17.6,2.6-26.1,5.2c-2.4,0.7-7.5,4-7.5,4L518,192.6c0,0-9.9,4.7-10.6,19.3s16.5,24.8,16.5,24.8
		s9.4,11.1,15.6,17.9c6.1,6.8,3.5,7.9,4,9.1s-0.4,13.2-0.4,13.2s27.6,7.1,44.3,5.7s24.5-5.9,24.5-5.9s1.8-7.2-1.3-16.9
		S604.5,245.1,604.3,243z"/>
	<path class="st0" d="M582.6,283.3c-16.6,0-39.5-5.8-39.7-5.9c-0.2-0.1-0.4-0.3-0.4-0.5c0.4-5,0.8-12.3,0.5-13
		c-0.1-0.4-0.1-0.8,0-1.2c0.2-1,0.6-2.8-3.9-7.8c-5.8-6.5-14.8-17-15.5-17.9c-1.2-0.8-17.4-10.9-16.7-25.2
		c0.7-14.7,10.8-19.7,10.9-19.8l22.4-12.2c0.2-0.1,5.2-3.3,7.6-4c8.6-2.6,17.4-4.3,26.3-5.2c12.2-1.1,22.4,5.9,23.4,6.6
		c0.8,0.2,7.4,1.9,12.8,3.4c0.2,0.1,0.4,0.3,0.4,0.5l-2.8,25.5c0,0.1-0.1,0.3-0.2,0.3c-0.1,0.1-0.2,0.1-0.4,0.1
		c-6-0.9-12.3-1.9-14.5-2.3c1.8,5.5,11.8,36.2,12,38.2l0,0c0.4,1.6,1,3.1,1.7,4.6c1.2,2.9,2.9,6.8,4.6,12.1
		c3.1,9.7,1.4,16.8,1.3,17.1c0,0.1-0.1,0.2-0.2,0.3c-0.3,0.2-8.1,4.6-24.7,6C585.9,283.2,584.3,283.3,582.6,283.3z M543.5,276.5
		c3.5,0.9,28.4,6.8,43.8,5.5c15-1.3,22.8-5.1,24.1-5.7c0.9-5.5,0.4-11.1-1.3-16.4c-1.7-5.3-3.3-9.2-4.5-12.1
		c-0.8-1.5-1.3-3.2-1.8-4.9l0,0c-0.2-1.6-8.1-26.1-12.2-38.8c-0.1-0.2,0-0.3,0.1-0.5c0.1-0.1,0.3-0.2,0.5-0.2
		c0.1,0,7.6,1.3,14.8,2.4l2.7-24.5c-5.7-1.5-12.5-3.3-12.5-3.3c-0.1,0-0.1,0-0.2-0.1c-0.1-0.1-10.4-7.7-22.8-6.5
		c-8.8,0.9-17.6,2.6-26.1,5.2c-2.3,0.7-7.4,3.9-7.4,4L518.2,193c-0.1,0.1-9.7,4.8-10.4,18.9s16.1,24.2,16.3,24.3
		c0,0,0.1,0.1,0.1,0.1c0.1,0.1,9.5,11.2,15.5,17.9c4.8,5.4,4.4,7.4,4.1,8.7c-0.1,0.2-0.1,0.4,0,0.6
		C544.4,264.7,543.7,273.8,543.5,276.5L543.5,276.5z"/>
	<path class="st4" d="M500.5,165c0,0,7.4,16.8,8.9,20.3s11.3,14.5,13.2,16.3c3.1,3,9.3,1.2,9.3,1.2s6.9,4.6,12.2,1.4
		s7.2-8.1,5.7-14.4c-1.2-4.5-2.9-8.8-5-12.9c0.1,0.2,2.9-3.3,3.1-3.7c1-2.4,0.7-6.2-0.4-8.6c-0.4-1.1-1.2-1.9-2.2-2.3
		c-0.5-0.1-1-0.1-1.4-0.1c0,0-5.8-14.1-9.8-18.4s-15-4.5-24.1,1.7S498.1,159,500.5,165z"/>
	<path class="st0" d="M539.9,205.9c-2.9-0.1-5.6-1-8.1-2.5c-1.2,0.3-6.6,1.5-9.6-1.4c-1.7-1.7-11.8-12.7-13.3-16.4
		c-1.4-3.5-8.8-20.2-8.8-20.3l0,0c-2.7-6.7,0.8-14,9.6-19.9c9.4-6.4,20.6-6,24.8-1.6c3.5,3.7,8.8,15.6,9.8,18.3
		c0.4,0,0.8,0.1,1.3,0.2c1.2,0.4,2.1,1.4,2.5,2.5c1,2.4,1.5,6.4,0.4,8.9c-0.9,1.3-1.8,2.5-2.9,3.6c2.1,4,3.7,8.3,4.9,12.7
		c1.5,6.5-0.6,11.7-6,14.9C543,205.5,541.4,205.9,539.9,205.9z M531.9,202.3c0.1,0,0.2,0,0.3,0.1c0.1,0,6.8,4.3,11.7,1.4
		s6.9-7.7,5.5-13.8c-1.2-4.4-2.9-8.7-5-12.8l0,0c-0.1-0.2,0-0.5,0.2-0.7c0,0,0,0,0,0h0.1c1-1.1,1.9-2.2,2.8-3.4
		c1-2.3,0.6-5.9-0.4-8.1c-0.3-0.9-1-1.7-1.9-2c-0.1,0-1-0.1-1.2-0.1h-0.1c-0.2,0-0.3-0.1-0.4-0.3c0-0.1-5.8-14.1-9.7-18.3
		s-14.5-4.4-23.5,1.8c-8.3,5.7-11.7,12.5-9.2,18.8c0.2,0.5,7.5,16.8,8.9,20.4c1.4,3.4,11,14.1,13,16.1c2.9,2.8,8.8,1.1,8.8,1.1
		C531.8,202.3,531.8,202.3,531.9,202.3L531.9,202.3z"/>
	<path class="st0" d="M543.8,162.4c0,0-5.8-14.1-9.8-18.4s-15-4.5-24.1,1.7s-11.8,13.3-9.4,19.3l0.5,1.2l0,0c0,0,0.2-2.6,1.9-2.3
		s9,3.4,13.8,0.2s6.4-6.2,9.6-6.2s6.4,5.5,8.1,8.5s5.8,1.1,5.8,1.1S541.6,163.1,543.8,162.4z"/>
	<path class="st0" d="M537.6,168.6c-1.5,0.1-2.9-0.7-3.6-2c-1.3-2.2-4.6-8.2-7.7-8.2c-1.9,0-3.2,1.1-5.2,2.9
		c-1.3,1.2-2.7,2.3-4.2,3.3c-4.2,2.9-10.2,1.1-13.1,0.2c-0.4-0.1-0.8-0.2-1-0.3c-0.2-0.1-0.4,0-0.6,0.1c-0.4,0.5-0.7,1.1-0.7,1.7
		c0,0.3-0.3,0.5-0.5,0.5c0,0,0,0,0,0c-0.2,0-0.3-0.1-0.4-0.3l-0.5-1.2c-2.7-6.7,0.8-14,9.6-20c9.4-6.4,20.6-6,24.8-1.6
		c3.9,4.1,10,18.3,10,18.8c0,0.2-0.1,0.4-0.3,0.5c-1.6,0.5-2.9,3.6-3.3,4.8c0,0.1-0.1,0.2-0.3,0.3
		C539.6,168.3,538.6,168.6,537.6,168.6z M526.3,157.4c3.2,0,6.2,4.7,8.5,8.7c1.3,2.3,4.2,1.3,5,1c0.3-0.9,1.5-4,3.3-5
		c-1-2.4-6-14.1-9.5-17.8c-3.9-4.1-14.5-4.4-23.5,1.8c-8.3,5.7-11.6,12.4-9.3,18.6c0.2-0.4,0.4-0.7,0.7-0.9c0.4-0.3,0.9-0.4,1.4-0.3
		c0.2,0.1,0.6,0.2,1.1,0.3c2.7,0.8,8.4,2.6,12.2,0c1.4-1,2.8-2.1,4.1-3.2C522.6,158.7,524.1,157.4,526.3,157.4z"/>
	<path class="st0" d="M531.9,202.8c1.9-0.5,3.7-1.5,5.2-2.9c1.9-2.1,3.6-6.6,3.6-6.6l-0.6,11.5c0,0-0.4,0.4-3,0
		C535.2,204.5,533.5,203.8,531.9,202.8z"/>
	<path class="st0" d="M539,205.5c-2.6,0-5.2-0.8-7.4-2.2c-0.2-0.1-0.3-0.5-0.2-0.7c0.1-0.1,0.2-0.2,0.3-0.2c1.8-0.5,3.5-1.4,4.9-2.8
		c1.8-2,3.5-6.4,3.5-6.4c0.1-0.2,0.3-0.4,0.6-0.3c0.2,0,0.4,0.3,0.4,0.5l-0.6,11.5c0,0.1-0.1,0.2-0.1,0.3
		C540,205.4,539.5,205.5,539,205.5z M533.1,203c1.3,0.7,2.6,1.1,4,1.4c0.8,0.2,1.6,0.2,2.5,0.1l0.4-8.4c-0.7,1.5-1.5,2.9-2.6,4.2
		C536.2,201.5,534.7,202.4,533.1,203z"/>
	<path class="st0" d="M522.4,192.2c-0.5,0-1-0.1-1.4-0.3c-1.5-0.8-1.9-4.6-2-5.3c0-0.3,0.2-0.5,0.5-0.5c0.3,0,0.5,0.2,0.5,0.5
		c0.2,1.6,0.7,4.1,1.5,4.5c0.5,0.3,2.3,0.2,4.1-0.5c0.9-0.2,1.6-0.7,2.1-1.5c0.1-0.3,0.4-0.4,0.6-0.3c0,0,0,0,0,0
		c0.3,0.1,0.4,0.4,0.3,0.6c-0.3,1-1.7,1.7-2.7,2.1C524.8,191.9,523.6,192.1,522.4,192.2z"/>
	<path class="st0" d="M523.8,195.4c-0.4,0-0.7,0-1.1-0.1c-0.3,0-0.5-0.3-0.4-0.6c0-0.3,0.3-0.5,0.6-0.4c0,0,4.8,0.7,7.6-3
		c0.2-0.2,0.5-0.3,0.7-0.1c0.2,0.2,0.3,0.5,0.1,0.7C529.4,194.2,526.7,195.5,523.8,195.4z"/>
	<path class="st0" d="M527.4,180.7c-0.4,0-0.8,0-1.2-0.1c-0.3,0-0.4-0.3-0.4-0.6c0,0,0,0,0,0c0-0.3,0.3-0.4,0.6-0.4c0,0,0,0,0,0
		c2.2,0.4,4.4-0.5,5.7-2.2c0.2-0.2,0.5-0.3,0.7-0.1c0,0,0,0,0,0c0.2,0.2,0.3,0.5,0.1,0.7c0,0,0,0,0,0
		C531.6,179.8,529.6,180.8,527.4,180.7z"/>
	<path class="st0" d="M523.5,177c-0.6,0-1-0.5-1-1c0-0.3,0.1-0.5,0.3-0.7c0.1-0.1,2.8-2.5,8-2.5c0.6,0,1,0.4,1,1s-0.4,1-1,1
		c-2.4-0.1-4.7,0.6-6.7,2C523.9,176.9,523.7,177,523.5,177z"/>
	<path class="st0" d="M509,180.6c-0.2,0-0.4-0.1-0.6-0.2c-0.4-0.3-0.5-0.9-0.2-1.4c0,0,0,0,0,0c2.5-3.4,7.6-1.2,7.8-1.1
		c0.5,0.2,0.7,0.8,0.5,1.3s-0.8,0.7-1.3,0.5l0,0c-0.1,0-3.8-1.7-5.4,0.4C509.6,180.4,509.3,180.6,509,180.6z"/>
	<path class="st0" d="M512.6,184.8c-0.8,0-1.5-0.2-2.1-0.7c-0.2-0.2-0.2-0.5,0-0.7c0,0,0,0,0,0c0.2-0.2,0.5-0.2,0.7,0c0,0,0,0,0,0
		c0.1,0.1,1.5,1.4,4.8-0.8c0.2-0.2,0.5-0.2,0.7,0s0.2,0.5,0,0.7c0,0-0.1,0.1-0.1,0.1C515.4,184.2,514.1,184.7,512.6,184.8z"/>
</g>
<g id="freepik--character-2--inject-21">
	<path class="st0" d="M628.6,371.7c-4.1-0.2-8.1-1.6-11.5-4c-1.1-0.7-1.4-2.1-0.7-3.2c0.7-1.1,2.1-1.4,3.2-0.7
		c0.1,0.1,0.2,0.1,0.2,0.2c0.3,0.2,8,5.8,14.3,1.3c4.7-3.3,5.3-25.7,4.3-40.5c-0.1-1.3,0.9-2.3,2.1-2.4s2.3,0.9,2.4,2.1
		c0.5,6.4,2.3,38.5-6.2,44.5C634.4,370.7,631.5,371.7,628.6,371.7z"/>
	<rect x="592.9" y="371.3" class="st0" width="7.6" height="55.8"/>
	<path class="st0" d="M600.5,427.5h-7.6c-0.3,0-0.5-0.2-0.5-0.5v-55.8c0-0.3,0.2-0.5,0.5-0.5h7.6c0.3,0,0.5,0.2,0.5,0.5V427
		C601,427.3,600.8,427.5,600.5,427.5C600.5,427.5,600.5,427.5,600.5,427.5z M593.4,426.5h6.6v-54.8h-6.6L593.4,426.5z"/>
	<path class="st5" d="M566.7,349.5h60c2.1,0,3.8,1.7,3.8,3.8v8.7c0,2.1-1.7,3.8-3.8,3.8h-60c-2.1,0-3.8-1.7-3.8-3.8v-8.7
		C562.8,351.3,564.6,349.5,566.7,349.5z"/>
	<path class="st0" d="M626.7,366.4h-60c-2.4,0-4.3-1.9-4.3-4.3v-8.7c0-2.4,1.9-4.3,4.3-4.3l0,0h60c2.4,0,4.3,1.9,4.3,4.3v8.7
		C631,364.5,629.1,366.4,626.7,366.4z M566.7,350c-1.8,0-3.3,1.5-3.3,3.3v8.7c0,1.8,1.5,3.3,3.3,3.3h60c1.8,0,3.3-1.5,3.3-3.3l0,0
		v-8.7c0-1.8-1.5-3.3-3.3-3.4c0,0,0,0,0,0L566.7,350z"/>
	<path class="st5" d="M636.5,273.7c-0.6,1.3-1.1,2.7-1.5,4.1c-2.9,9.9-3.1,20.6-3.2,30.8c0,4.1-1.1,10.6,0.5,14.4
		c2,4.7,10.8,6.9,13.3,1.6c3.1-6.7,1.2-15.5,2.7-22.8c1.7-8,6.2-17.9,4.2-25.9c-1.9-7.7-8.1-13.9-14.1-5.5
		C637.6,271.5,637,272.6,636.5,273.7z"/>
	<path class="st0" d="M640.2,328.2h-0.2c-3.5-0.1-7.1-2.2-8.2-5s-0.9-7.2-0.7-11.1c0.1-1.3,0.2-2.5,0.2-3.5
		c0.1-9.2,0.2-20.6,3.2-30.9c0.4-1.4,0.9-2.8,1.5-4.2l0,0c0.5-1.2,1.2-2.3,1.9-3.4c2.9-4,5.6-4.4,7.4-4.1c3.3,0.6,6.3,4.5,7.6,9.8
		c1.5,5.9-0.5,12.6-2.3,19.1c-0.7,2.5-1.4,4.8-1.8,7.1c-0.5,3-0.7,6.1-0.7,9.2c-0.1,4.7-0.2,9.6-2,13.7
		C645,327.1,642.7,328.4,640.2,328.2z M644.4,267c-1.9,0-3.8,1.3-5.6,3.8c-0.7,1-1.3,2.1-1.8,3.2l0,0c-0.6,1.3-1.1,2.7-1.5,4.1
		c-3,10.2-3.1,21.5-3.2,30.7c0,1.1-0.1,2.3-0.2,3.6c-0.2,3.7-0.5,8,0.6,10.6c1,2.4,4.2,4.3,7.3,4.3c2.1,0.2,4.1-0.9,5-2.8
		c1.8-3.9,1.9-8.6,2-13.3c0-3.1,0.2-6.3,0.7-9.4c0.5-2.3,1.2-4.6,1.9-7.1c1.8-6.3,3.7-12.9,2.3-18.6c-1.2-4.9-3.9-8.5-6.8-9.1
		C644.9,267,644.7,267,644.4,267L644.4,267z M636.5,273.7L636.5,273.7z"/>
	<rect x="582.7" y="366" class="st0" width="27.9" height="7.6"/>
	<path class="st0" d="M610.6,374.1h-27.9c-0.3,0-0.5-0.2-0.5-0.5v-7.6c0-0.3,0.2-0.5,0.5-0.5h27.9c0.3,0,0.5,0.2,0.5,0.5v7.6
		C611.1,373.9,610.9,374.1,610.6,374.1z M583.2,373.1h26.9v-6.6h-26.9V373.1z"/>
	<path class="st1" d="M563.9,453.4c0,2-1.6,3.6-3.6,3.6c-2,0-3.6-1.6-3.6-3.6c0-2,1.6-3.6,3.6-3.6c0,0,0,0,0,0
		C562.3,449.8,563.9,451.4,563.9,453.4C563.9,453.4,563.9,453.4,563.9,453.4z"/>
	<path class="st0" d="M560.4,457.5c-2.2,0-4.1-1.8-4.1-4.1c0-2.2,1.8-4.1,4.1-4.1s4.1,1.8,4.1,4.1c0,0,0,0,0,0
		C564.4,455.6,562.6,457.5,560.4,457.5z M560.4,450.3c-1.7,0-3.1,1.4-3.1,3.1c0,1.7,1.4,3.1,3.1,3.1s3.1-1.4,3.1-3.1c0,0,0,0,0,0
		C563.4,451.7,562.1,450.3,560.4,450.3L560.4,450.3z"/>
	<path class="st1" d="M637.2,453.4c0,2-1.6,3.6-3.6,3.6c-2,0-3.6-1.6-3.6-3.6c0-2,1.6-3.6,3.6-3.6
		C635.6,449.8,637.2,451.4,637.2,453.4C637.2,453.4,637.2,453.4,637.2,453.4z"/>
	<path class="st0" d="M633.7,457.5c-2.2,0-4.1-1.8-4.1-4.1s1.8-4.1,4.1-4.1c2.2,0,4.1,1.8,4.1,4.1
		C637.7,455.6,635.9,457.5,633.7,457.5z M633.7,450.3c-1.7,0-3.1,1.4-3.1,3.1s1.4,3.1,3.1,3.1c1.7,0,3.1-1.4,3.1-3.1
		C636.7,451.7,635.3,450.3,633.7,450.3L633.7,450.3z"/>
	<path class="st1" d="M600.1,453.4c0,2-1.6,3.6-3.6,3.6c-2,0-3.6-1.6-3.6-3.6c0-2,1.6-3.6,3.6-3.6c0,0,0,0,0,0
		C598.5,449.8,600.1,451.4,600.1,453.4C600.1,453.4,600.1,453.4,600.1,453.4z"/>
	<path class="st0" d="M596.6,457.5c-2.2,0-4.1-1.8-4.1-4.1c0-2.2,1.8-4.1,4.1-4.1s4.1,1.8,4.1,4.1c0,0,0,0,0,0
		C600.6,455.6,598.8,457.5,596.6,457.5z M596.6,450.3c-1.7,0-3.1,1.4-3.1,3.1c0,1.7,1.4,3.1,3.1,3.1s3.1-1.4,3.1-3.1c0,0,0,0,0,0
		C599.6,451.7,598.3,450.3,596.6,450.3L596.6,450.3z"/>
	<polygon class="st0" points="599.1,427 596.7,427.1 594.3,427 555.1,449.2 555.1,452.4 560.4,452.4 560.4,449.6 596.7,436.8 
		633,449.6 633,452.4 638.3,452.4 638.3,449.2 	"/>
	<path class="st0" d="M638.3,452.9H633c-0.3,0-0.5-0.2-0.5-0.5V450l-35.8-12.6L560.9,450v2.5c0,0.3-0.2,0.5-0.5,0.5h-5.3
		c-0.3,0-0.5-0.2-0.5-0.5v-3.2c0-0.2,0.1-0.3,0.2-0.4l39.2-22.2c0.1,0,0.2-0.1,0.3-0.1l2.4,0.1l2.4-0.1c0.1,0,0.2,0,0.3,0.1
		l39.2,22.2c0.2,0.1,0.3,0.2,0.3,0.4v3.2C638.8,452.7,638.6,452.9,638.3,452.9z M633.5,451.9h4.3v-2.5l-38.8-22l-2.3,0.1l-2.3-0.1
		l-38.8,22v2.5h4.3v-2.3c0-0.2,0.1-0.4,0.3-0.5l36.3-12.8c0.1,0,0.2,0,0.3,0l36.3,12.8c0.2,0.1,0.3,0.3,0.3,0.5L633.5,451.9z"/>
	<polygon class="st0" points="593.2,426.9 600.2,426.9 599.1,452.4 594.2,452.4 	"/>
	<path class="st0" d="M599.1,452.9h-4.9c-0.3,0-0.5-0.2-0.5-0.5l-1-25.5c0-0.1,0-0.3,0.1-0.4c0.1-0.1,0.2-0.1,0.4-0.1h6.9
		c0.1,0,0.3,0.1,0.4,0.1c0.1,0.1,0.2,0.2,0.1,0.4l-1,25.5C599.7,452.7,599.5,452.9,599.1,452.9C599.2,452.9,599.1,452.9,599.1,452.9
		z M594.7,451.9h3.9l1-24.5h-5.9L594.7,451.9z"/>
	<path class="st1" d="M556.6,195.8c0,0-1,7.6,1.9,11.8s3.7,6.6,3.7,8.6s-1.3,5.2,0,6.1s5.2,0,5.2,0s7,7.1,9.4,6.5
		c1.8-0.6,3.4-1.4,4.8-2.6c0,0,7.3,7.4,8.3,9.6s1.6,3.7,1.6,3.7l10.8-17.2c-4.7-3.7-8.3-8.7-10.5-14.2c-3.4-9.1-3.4-21-13.8-23.6
		S557.8,191.5,556.6,195.8z"/>
	<path class="st0" d="M591.6,240.1L591.6,240.1c-0.2,0-0.3-0.1-0.4-0.3c0,0-0.7-1.6-1.6-3.7c-0.7-1.6-5.7-6.8-7.8-9.1
		c-1.4,1.1-3,1.9-4.7,2.4c-2.5,0.7-8.1-4.8-9.7-6.4c-1,0.2-4,0.8-5.3-0.1c-1.1-0.8-0.8-2.7-0.5-4.4c0.1-0.7,0.2-1.4,0.3-2.1
		c0-1.4-0.4-3.6-3.6-8.3c-3-4.3-2.1-11.9-2-12.2c0,0,0,0,0-0.1c1.2-4.8,11.8-14.3,22.1-11.7c8.1,2,10.1,9.6,12,17
		c0.6,2.4,1.3,4.7,2.1,7c2.2,5.5,5.7,10.3,10.3,14c0.2,0.2,0.3,0.4,0.1,0.7L592,239.8C591.9,240,591.8,240.1,591.6,240.1z
		 M581.7,225.8c0.1,0,0.3,0.1,0.4,0.1c0.3,0.3,7.4,7.5,8.4,9.7c0.5,1.1,1,2.2,1.2,2.9l10.1-16c-4.6-3.8-8.2-8.6-10.3-14.2
		c-0.8-2.3-1.5-4.7-2.1-7.1c-1.9-7.4-3.8-14.4-11.3-16.3c-10.3-2.6-19.9,7-20.9,10.9c-0.1,0.5-0.8,7.6,1.9,11.4s3.8,6.5,3.8,8.9
		c0,0.8-0.1,1.5-0.3,2.3c-0.2,1.4-0.5,3,0.1,3.5c0.8,0.6,3.3,0.3,4.8-0.1c0.2-0.1,0.4,0,0.5,0.1c2.6,2.7,7.4,6.8,8.9,6.3
		c1.7-0.6,3.3-1.4,4.7-2.5C581.5,225.8,581.6,225.8,581.7,225.8z"/>
	<path class="st0" d="M570.1,221.8c-0.2,0-0.4-0.1-0.5-0.3c-0.1-0.2,0-0.5,0.2-0.7c0,0,0,0,0,0c0,0,2.8-1.4,2.8-3.9
		c0-0.3,0.2-0.5,0.5-0.5s0.5,0.2,0.5,0.5c0,3.2-3.2,4.8-3.4,4.8C570.3,221.7,570.2,221.8,570.1,221.8z"/>
	<path class="st0" d="M562,209c-0.3,0-0.5-0.2-0.5-0.5c-0.2-1.8,1.2-3.4,3-3.6c0.4,0,0.9,0,1.3,0.1c0.3,0,0.4,0.3,0.4,0.5
		c0,0,0,0,0,0c0,0.3-0.3,0.5-0.6,0.4c0,0,0,0,0,0c-0.8-0.2-1.7-0.1-2.4,0.4c-0.5,0.5-0.8,1.3-0.8,2C562.5,208.8,562.3,209,562,209
		C562,209,562,209,562,209L562,209z"/>
	<path class="st0" d="M566.2,211.5c0.6,0.9,0.7,2,0.2,2.3s-1.4-0.2-2-1.1s-0.7-2-0.2-2.3S565.6,210.6,566.2,211.5z"/>
	<polygon class="st0" points="581.7,226.3 586.1,223 586.1,230.3 	"/>
	<path class="st0" d="M586.1,230.8c-0.1,0-0.2,0-0.3-0.1l-4.4-4c-0.2-0.2-0.2-0.5-0.1-0.7c0,0,0,0,0.1-0.1l4.4-3.3
		c0.2-0.2,0.5-0.1,0.7,0.1c0.1,0.1,0.1,0.2,0.1,0.3v7.4c0,0.2-0.1,0.4-0.3,0.5C586.2,230.8,586.1,230.8,586.1,230.8z M582.5,226.3
		l3.1,2.9V224L582.5,226.3z"/>
	<path class="st1" d="M515.9,343.7l-9.5,94.9c0,0-13.4,0.3-19-0.3s-10.9-2.8-10.3,0.3s8.9,8.1,12,9.5s7,2.2,9.5,3.6s7.8,5.3,10,4.7
		s7.2-20.9,7.2-20.9l26-83.4l29-2.2c0,0-43.8-11.7-48.3-12.3S515.9,343.7,515.9,343.7z"/>
	<path class="st0" d="M508.2,457c-2,0-5.1-2-7.7-3.6c-0.8-0.5-1.5-1-2.1-1.3c-1.6-0.8-3.2-1.5-4.9-2c-1.5-0.5-3-1-4.5-1.7
		c-2.5-1.1-11.6-6.3-12.3-9.9c-0.2-0.6,0-1.2,0.4-1.6c0.9-0.9,3-0.5,5.8,0c1.4,0.3,3,0.6,4.6,0.7c4.9,0.5,16.1,0.3,18.5,0.3
		l9.4-94.4c0,0,0-0.1,0-0.1c0.1-0.3,2.4-7.1,7.2-6.5c4.5,0.5,46.5,11.8,48.3,12.3c0.2,0.1,0.4,0.3,0.4,0.5c0,0.2-0.2,0.4-0.5,0.5
		l-28.7,2.2l-25.8,83.1c-1.2,4.8-5.3,20.7-7.6,21.3C508.6,456.9,508.4,457,508.2,457z M478.8,437.5c-0.4,0-0.7,0-1,0.2
		c-0.1,0.2-0.2,0.5-0.1,0.8c0.5,2.7,8.4,7.6,11.7,9.1c1.4,0.6,2.9,1.1,4.4,1.6c1.8,0.5,3.5,1.2,5.1,2c0.6,0.3,1.3,0.8,2.1,1.3
		c2.4,1.5,6,3.8,7.5,3.4c1.2-0.5,4.5-10.8,6.9-20.6l25.9-83.4c0.1-0.2,0.2-0.3,0.4-0.4l26.1-2c-9.8-2.6-41.6-11-45.4-11.5
		s-5.9,5.2-6.1,5.8l-9.4,94.8c0,0.3-0.2,0.4-0.5,0.5c-0.1,0-13.5,0.3-19-0.3c-1.6-0.2-3.3-0.5-4.7-0.8
		C481.4,437.8,480.1,437.6,478.8,437.5L478.8,437.5z M506.4,438.6L506.4,438.6z"/>
	<path class="st2" d="M501.4,446.4c-9.5-2.2-12.8-5-12.8-5l2.5-2.9c-1.4,0-2.6-0.1-3.6-0.2c-5.6-0.6-10.9-2.8-10.3,0.3
		s8.9,8.1,12,9.5s7,2.2,9.5,3.6s7.8,5.3,10,4.7c0.9-0.2,2.3-3.9,3.7-8.1C508.6,448,505,447.3,501.4,446.4z"/>
	<path class="st0" d="M508.2,457c-2,0-5.1-2-7.7-3.6c-0.8-0.5-1.5-1-2.1-1.3c-1.6-0.8-3.2-1.5-4.9-2c-1.5-0.5-3-1-4.5-1.7
		c-2.5-1.1-11.6-6.3-12.3-9.9c-0.2-0.6,0-1.2,0.4-1.6c0.9-0.9,3-0.5,5.8,0c1.4,0.3,3,0.6,4.6,0.7c0.9,0.1,2.1,0.2,3.6,0.2
		c0.3,0,0.5,0.3,0.5,0.5c0,0.1,0,0.2-0.1,0.3l-2.2,2.4c1.1,0.8,4.8,2.9,12.2,4.6l0,0c3.6,0.9,7.2,1.5,10.9,2c0.1,0,0.3,0.1,0.4,0.2
		c0.1,0.1,0.1,0.3,0.1,0.4c-2.2,7.1-3.3,8.2-4,8.4C508.6,456.9,508.4,457,508.2,457z M478.8,437.5c-0.4,0-0.7,0-1,0.2
		c-0.1,0.2-0.2,0.5-0.1,0.8c0.5,2.7,8.4,7.6,11.7,9.1c1.4,0.6,2.9,1.1,4.4,1.6c1.8,0.5,3.5,1.2,5.1,2c0.6,0.3,1.3,0.8,2.1,1.3
		c2.4,1.5,6,3.8,7.5,3.4c0.1-0.1,1-0.7,3.1-7.2c-3.5-0.4-7-1.1-10.4-1.9c-9.5-2.2-12.9-5-13-5.1c-0.1-0.1-0.2-0.2-0.2-0.4
		c0-0.1,0-0.3,0.1-0.4l1.8-2c-1,0-1.9-0.1-2.6-0.2c-1.6-0.2-3.3-0.5-4.7-0.8C481.4,437.8,480.1,437.6,478.8,437.5L478.8,437.5z"/>
	<path class="st1" d="M585.1,301.1l-3.7,14.5c-12,0.6-23.9,2.1-35.7,4.5c-19,3.9-36.5,9.2-37.1,12.5s21.2,43.2,38.2,73.9
		c3.7,6.6,11.7,23.4,11.7,23.4s-3.1,8.4-6.1,13.1s-7.8,9.2-8.9,9.8s-4.5,2-3.3,3.3s12.5,0,13.4,0s9.8-7.8,12.3-10s12.3-9.5,12-12.3
		s-8.9-8.9-9.5-10.9s-11.7-26.2-12.3-28.5s-15.3-46-15.3-46s60.5,3.4,73.7,2.2s15.1-6.1,15.9-10.6s-5-40.7-5-40.7l-39.1-0.3
		L585.1,301.1z"/>
	<path class="st0" d="M543.9,457.3c-2.4,0-3.7-0.3-4.1-0.8c-0.3-0.3-0.4-0.8-0.3-1.2c0.2-1.1,1.8-2,3.4-2.7l0.4-0.2
		c1.1-0.5,5.7-5,8.7-9.6c2.8-4.2,5.5-11.5,6-12.8c-0.9-1.9-8.2-17-11.6-23.2c-34.9-63-38.6-72.5-38.3-74.3c0.7-4,20.6-9.5,37.5-13
		c11.7-2.3,23.5-3.8,35.4-4.4l3.6-14.1c0,0,0-0.1,0-0.1l1.1-2c0.1-0.2,0.3-0.3,0.4-0.3l0,0l39,0.3c0.2,0,0.5,0.2,0.5,0.4
		c0.2,1.5,5.9,36.4,5,40.9c-0.9,4.7-3,9.9-16.3,11c-12.2,1-66-1.8-73-2.2c2,5.8,14.6,43.3,15.1,45.4c0.3,1.2,3.8,9,6.8,15.9
		c2.8,6.2,5.2,11.6,5.4,12.5c0.2,0.7,2.1,2.5,3.8,4c2.7,2.5,5.6,5.2,5.8,7c0.2,2.3-4.6,6.5-10,10.9c-0.9,0.8-1.7,1.4-2.2,1.8
		c-4.3,3.8-11.6,10.2-12.6,10.2c-0.2,0-0.7,0-1.4,0.1C548.5,457.1,545.8,457.3,543.9,457.3z M585.6,301.3l-3.7,14.4
		c-0.1,0.2-0.2,0.4-0.5,0.4c-12,0.6-23.9,2.1-35.6,4.5c-20.5,4.2-36.3,9.4-36.7,12.1c-0.3,1.7,6.1,15.8,38.2,73.6
		c3.7,6.6,11.7,23.3,11.7,23.5c0.1,0.1,0.1,0.3,0,0.4c-0.1,0.3-3.1,8.5-6.2,13.2s-7.9,9.4-9.1,9.9l-0.4,0.2c-0.8,0.4-2.7,1.3-2.9,2
		c0,0.1,0,0.3,0.1,0.4c0.3,0.4,2.6,0.8,11.5-0.1c0.9-0.1,1.3-0.1,1.5-0.1c0.8-0.3,7.5-6,11.9-9.9c0.5-0.4,1.3-1.1,2.2-1.8
		c3.2-2.6,9.8-8,9.6-10c-0.2-1.4-3.1-4.1-5.4-6.3s-3.8-3.5-4-4.5s-2.9-6.7-5.4-12.4c-3.2-7.3-6.6-14.8-6.9-16.1
		c-0.5-2.2-15.2-45.6-15.3-46c0-0.2,0-0.3,0.1-0.5c0.1-0.1,0.3-0.2,0.4-0.2c0.6,0,60.7,3.3,73.6,2.2c12.7-1.1,14.6-5.8,15.5-10.2
		c0.8-4.1-4.3-36.1-5-40.1l-38.3-0.3L585.6,301.3z M581.4,315.6L581.4,315.6z"/>
	<path class="st0" d="M540.7,349c-0.1,0-0.1,0-0.2,0l-13.4-5.6c-0.3-0.1-0.4-0.4-0.3-0.7c0.1-0.3,0.4-0.4,0.7-0.3l13.4,5.5
		c0.3,0.1,0.4,0.4,0.3,0.7C541.1,348.9,540.9,349,540.7,349z"/>
	<path class="st2" d="M577.8,433.8c-0.1-1.4-2.3-3.5-4.5-5.6c-0.9,1.1-1.9,2.4-3,3.7c-3.3,3.9-17.6,17.9-17.6,17.9l-4.5-1.2
		c-1.4,1.6-2.9,3.1-4.7,4.3c-1.1,0.5-4.5,2-3.3,3.3s12.5,0,13.4,0s9.8-7.8,12.3-10S578.1,436.6,577.8,433.8z"/>
	<path class="st0" d="M543.9,457.3c-2.4,0-3.7-0.3-4.1-0.8c-0.3-0.3-0.4-0.8-0.3-1.2c0.2-1.1,1.8-2,3.4-2.7l0.4-0.2
		c1.7-1.2,3.2-2.6,4.5-4.2c0.1-0.1,0.3-0.2,0.5-0.1l4.3,1.2c1.8-1.7,14.3-14,17.3-17.6c1-1.1,2-2.4,3-3.7c0.1-0.1,0.2-0.2,0.3-0.2
		c0.1,0,0.3,0,0.4,0.1c2.8,2.6,4.5,4.5,4.7,6c0.2,2.3-4.6,6.5-10,10.9c-0.9,0.8-1.7,1.4-2.2,1.8c-4.3,3.8-11.6,10.2-12.6,10.2
		c-0.2,0-0.7,0-1.4,0.1C548.5,457.1,545.8,457.3,543.9,457.3z M548.3,449.1c-1.4,1.6-2.9,3-4.6,4.2l-0.4,0.2c-0.8,0.4-2.7,1.3-2.9,2
		c0,0.1,0,0.3,0.1,0.4c0.3,0.4,2.6,0.8,11.5-0.1c0.9-0.1,1.3-0.1,1.5-0.1c0.8-0.3,7.5-6,11.9-9.9c0.5-0.4,1.3-1.1,2.2-1.8
		c3.2-2.6,9.8-8,9.6-10l0,0c-0.1-1.2-2.5-3.6-4-4.9c-0.9,1.2-1.8,2.3-2.7,3.3c-3.3,3.9-17,17.3-17.6,17.9c-0.1,0.1-0.3,0.2-0.5,0.1
		L548.3,449.1z"/>
	<path class="st2" d="M586.2,299.1l-1.1,2l-3.7,14.5c-12,0.6-23.9,2.1-35.7,4.4c-5.7,1.2-11.2,2.5-16.3,3.8l13,24.8
		c9.9,0.5,60.1,3.1,71.9,2.1c13.1-1.1,15.1-6.1,15.9-10.6s-5-40.7-5-40.7L586.2,299.1z"/>
	<path class="st0" d="M606.2,351.4c-18.5,0-55.4-1.9-63.8-2.4c-0.2,0-0.3-0.1-0.4-0.3l-13-24.8c-0.1-0.1-0.1-0.3,0-0.4
		c0.1-0.1,0.2-0.2,0.3-0.3c5-1.3,10.6-2.6,16.3-3.8c11.7-2.4,23.5-3.8,35.4-4.5l3.6-14.1c0,0,0-0.1,0-0.1l1.1-2
		c0.1-0.2,0.3-0.3,0.4-0.3l0,0l39,0.3c0.2,0,0.5,0.2,0.5,0.4c0.2,1.5,5.9,36.4,5,40.9c-0.9,4.7-3,9.9-16.3,11
		C612.5,351.4,609.7,351.4,606.2,351.4z M542.7,348.1c10.6,0.6,60,3.1,71.6,2.1c12.7-1.1,14.6-5.8,15.5-10.2
		c0.8-4.1-4.3-36.1-5-40.1l-38.3-0.3l-0.9,1.7l-3.7,14.4c-0.1,0.2-0.2,0.4-0.5,0.4c-12,0.6-23.9,2.1-35.6,4.5
		c-5.4,1.1-10.8,2.4-15.6,3.6L542.7,348.1z M581.4,315.5L581.4,315.5z"/>
	<path class="st0" d="M613.5,327.8c-0.1,0-0.2,0-0.3-0.1c-8.7-7.4-28.3-10.2-28.5-10.2c-0.3,0-0.5-0.3-0.4-0.6
		c0-0.3,0.3-0.5,0.6-0.4c0.8,0.1,20,2.9,29,10.4c0.2,0.2,0.2,0.5,0,0.7c0,0,0,0,0,0C613.8,327.7,613.6,327.8,613.5,327.8z"/>
	<path class="st0" d="M608.2,320.8c-0.1,0-0.2,0-0.3-0.1c-3.8-2.7-16.1-4.4-16.2-4.4c-0.3,0-0.5-0.3-0.4-0.6c0,0,0,0,0,0
		c0-0.3,0.3-0.5,0.5-0.4c0,0,0,0,0,0c0.5,0.1,12.7,1.7,16.7,4.5c0.2,0.2,0.3,0.5,0.1,0.7c0,0,0,0,0,0
		C608.5,320.7,608.4,320.8,608.2,320.8z"/>
	<path class="st1" d="M534.7,274.5c0,0-4.4-0.4-6.5,1s-12.1,8.1-14.8,10.4c-2.1,2-3.9,4.3-5.3,6.8c-0.2,0.6,1.1,0.8,1.7,0.6
		s3-2.1,2.3-1.1s0.6,1.2,0.6,1.2s14-8.2,15.2-8c1.8,0,3.5-0.6,4.9-1.7c1.8-1.2,3.6-2.2,5.5-3.2l44.7,8.7l6.8-6.2l-1.5-15.2l-10,8.3
		L534.7,274.5z"/>
	<path class="st0" d="M509.3,293.9c-0.5,0-1-0.1-1.4-0.5c-0.2-0.2-0.3-0.5-0.2-0.8c1.4-2.6,3.2-5,5.5-7c2.7-2.3,12.7-9.1,14.8-10.5
		s6.4-1.1,6.7-1l43.4,1.5l9.9-8.2c0.1-0.1,0.3-0.1,0.5-0.1c0.2,0.1,0.3,0.2,0.3,0.4l1.5,15.2c0,0.2,0,0.3-0.2,0.4l-6.8,6.2
		c-0.1,0.1-0.3,0.2-0.4,0.1l-44.5-8.7c-1.8,0.9-3.6,2-5.3,3.1c-1.6,1.2-4,2-5.3,1.8c-0.9,0-8.3,4.1-14.8,7.9
		c-0.1,0.1-0.2,0.1-0.3,0.1c-0.5-0.1-0.9-0.4-1.2-0.8c0,0,0-0.1,0-0.1l-0.1,0.1c-0.4,0.3-0.9,0.6-1.3,0.8
		C509.8,293.8,509.5,293.9,509.3,293.9z M508.7,292.8c0.3,0.1,0.7,0.1,1,0.1c0.4-0.2,0.8-0.4,1.1-0.7c1.1-0.8,1.5-1,1.8-0.6
		s0,0.8-0.1,0.9c-0.1,0.1-0.1,0.1-0.1,0.2c0.1,0,0.2,0.1,0.2,0.1c4.3-2.5,13.8-8,15.2-8h0.1c1.6,0,3.2-0.6,4.5-1.6
		c1.8-1.2,3.6-2.2,5.5-3.2c0.1-0.1,0.2-0.1,0.3,0l44.5,8.7l6.5-5.9l-1.4-14l-9.3,7.7c-0.1,0.1-0.2,0.1-0.3,0.1l-43.5-1.6l0,0
		c0,0-4.2-0.4-6.1,0.9c-2.1,1.4-12.1,8.1-14.7,10.4C511.8,288.1,510,290.3,508.7,292.8z"/>
	<path class="st1" d="M597.3,225.2c0,0-8.3,16.9-12.5,29.8s-2,15.9-1,16.7s3.2,2.4,3.2,2.4s-3.7,25-2,26.9s15.9,2.7,27.4,2.7
		s14.2-4.7,14.2-7.1s-5.1-41.9-9.1-54.6S603.2,221,597.3,225.2z"/>
	<path class="st0" d="M612.5,304.3c-4.2,0-25.4-0.1-27.8-2.9c-1.7-2,1.1-22.2,1.8-27c-0.6-0.5-2.2-1.7-2.9-2.3
		c-1.7-1.3-3-5.3,0.8-17.2c4.1-12.9,12.4-29.8,12.5-29.9c0-0.1,0.1-0.1,0.2-0.2c2-1.3,4.5-1.6,6.7-0.7c5.9,2,11.8,9.3,14.4,17.8
		c3.8,12.5,9.1,51.8,9.1,54.8S624.1,304.3,612.5,304.3z M597.7,225.5c-0.7,1.5-8.5,17.5-12.4,29.7c-4.1,12.7-1.9,15.5-1.2,16.1
		c1,0.7,3.2,2.5,3.2,2.5c0.1,0.1,0.2,0.3,0.2,0.5c-1.8,12.2-3.1,25.4-2.1,26.5c1.3,1.5,12.7,2.5,27,2.5c10.8,0,13.7-4.1,13.7-6.6
		c0-2.1-5-41.4-9-54.5c-2.5-8.2-8.2-15.2-13.8-17.2C601.6,224.3,599.5,224.4,597.7,225.5z"/>
	<path class="st1" d="M596.9,244.5l-5.2,36.8c0,0-54.1-2.9-55.1-2.9s-11.8,4.9-16.2,7.3s-7.3,4.2-8.1,5.9l-0.7,1.7
		c2.2,0.4,4.4,0.4,6.6,0c1.9-0.4,3.8-1.1,5.6-2c0,0,6.4-0.7,8.6-2.2s7.1-5.6,7.1-5.6s42.6,11.5,47,12.2s14.9,5.1,17.4,2.7
		c2-2,8.2-37.7,10.1-49.6c0.5-2.9-0.2-5.9-2.1-8.3c-1.5-1.9-3.5-3.6-5.9-3.9C598.9,235.8,596.9,244.5,596.9,244.5z"/>
	<path class="st0" d="M601.3,299.7c-2.7,0-6.4-1.1-9.8-2.1c-1.7-0.5-3.4-1-5.1-1.3c-4.2-0.7-43-11.1-46.8-12.2c-1,0.8-5,4.2-7,5.5
		c-2.2,1.4-7.9,2.2-8.7,2.3c-1.8,0.9-3.7,1.5-5.7,2c-2.3,0.4-4.6,0.4-6.8,0c-0.1,0-0.3-0.1-0.3-0.3c-0.1-0.1-0.1-0.3,0-0.4l0.7-1.7
		c0.8-1.8,3.7-3.5,8.3-6.1c3.9-2.1,15.2-7.4,16.4-7.4c1,0,49.1,2.6,54.7,2.9l5.2-36.3l0,0c0,0,2.2-9.2,9.8-8.2
		c2.7,0.4,4.9,2.4,6.2,4.1c1.9,2.4,2.7,5.6,2.2,8.6c-3,17.8-8.2,47.8-10.3,49.8C603.4,299.5,602.3,299.8,601.3,299.7z M539.5,283
		c0,0,0.1,0,0.1,0c0.4,0.1,42.6,11.5,47,12.2c1.8,0.4,3.5,0.8,5.2,1.4c4.3,1.3,10.2,3,11.8,1.5c1.3-1.3,5.1-20.2,10-49.3
		c0.5-2.8-0.3-5.6-2-7.9c-1.2-1.5-3.1-3.4-5.5-3.7c-6.6-0.9-8.5,6.8-8.7,7.4l-5.2,36.8c0,0.3-0.3,0.4-0.5,0.4
		c-18.7-1-54.3-2.9-55.1-2.9c-1,0.1-11.4,4.8-15.9,7.3c-4.3,2.4-7.2,4.1-7.9,5.6l-0.5,1.1c1.9,0.3,3.9,0.3,5.8-0.1
		c1.9-0.4,3.8-1.1,5.5-1.9c0,0,0.1,0,0.2,0c0.1,0,6.3-0.7,8.3-2.1s7-5.6,7.1-5.6C539.2,283,539.4,283,539.5,283z"/>
	<path class="st0" d="M518.2,293.8c-0.3,0-0.5-0.2-0.5-0.5c-0.1-1,0.4-2,1.2-2.6c1-0.6,6.3-3,6.8-3.2c0.3-0.1,0.5,0.1,0.6,0.3
		c0.1,0.3-0.1,0.5-0.3,0.6c-0.4,0.1-5.6,2.5-6.6,3.1c-0.8,0.4-0.7,1.7-0.7,1.7C518.7,293.6,518.5,293.8,518.2,293.8
		C518.2,293.8,518.2,293.8,518.2,293.8L518.2,293.8z"/>
	<path class="st0" d="M515.2,294.2c0,0-0.1,0-0.2,0c-0.3-0.1-0.4-0.4-0.3-0.6c0,0,0,0,0,0c0.2-0.6,0.8-2.6,1.5-3.1s6.3-3.7,6.9-4.1
		c0.2-0.1,0.5,0,0.7,0.2c0.1,0.2,0,0.5-0.2,0.6c-2.5,1.4-6.4,3.7-6.8,4c-0.5,0.8-0.9,1.7-1.2,2.6
		C515.6,294.1,515.5,294.2,515.2,294.2z"/>
	<path class="st0" d="M566.9,176.9c0,0-18.7,10.3-18.3,16.2s25.5,9.6,27.7,9.6s2.5-5.6,5.3-4s3.4,5.3,3.1,6.8
		c-0.2,1.2-0.6,2.3-0.9,3.4c0,0,6.2,18,12.4,21.1s14.5,5.7,20.1-1.5s4.2-15.7,0.8-19.4c-4.7-5.1-15.5-5-18.3-11.5
		s-1.9-16.5-8.1-22.7S566.9,176.9,566.9,176.9z"/>
	<path class="st0" d="M607,233.7c-3.2,0-6.9-1.1-11.1-3.2c-6.3-3.2-12.4-20.7-12.7-21.4c0-0.1,0-0.2,0-0.3c0.4-1.1,0.7-2.2,0.9-3.4
		c0.2-1.2-0.2-4.8-2.9-6.3c-1-0.6-1.5,0.1-2.5,1.7c-0.7,1.2-1.3,2.4-2.6,2.4c-1.4,0-27.8-3.5-28.2-10.1
		c-0.3-6.1,17.8-16.2,18.6-16.6l0,0c0.7-0.3,17.8-8.2,24.2-1.8c4.1,4.1,5.2,9.6,6.2,15c0.4,2.7,1.1,5.3,2,7.9c1.5,3.5,5.4,5,9.5,6.5
		c3.2,1.2,6.6,2.5,8.7,4.8c3.2,3.5,5.3,12.3-0.7,20C614.3,232,610.8,233.7,607,233.7z M584.2,208.9c0.6,1.8,6.5,17.9,12.1,20.7
		c9,4.5,15.2,4.1,19.5-1.3c5.7-7.2,3.8-15.4,0.8-18.7c-2-2.2-5.2-3.4-8.3-4.6c-4.2-1.6-8.4-3.2-10.1-7.1c-1-2.6-1.7-5.3-2.1-8.1
		c-1-5.2-2-10.6-5.9-14.4c-5.8-5.8-22.5,1.7-23,2c-5.1,2.8-18.3,11.1-18.1,15.7c0.3,5.2,24.1,9.2,27.2,9.2c0.7,0,1.2-0.9,1.7-1.9
		c0.8-1.4,1.8-3.2,3.8-2.1c3,1.7,3.7,5.7,3.4,7.4C584.9,206.7,584.6,207.8,584.2,208.9L584.2,208.9z"/>
	<path class="st0" d="M469.5,296.7h-22.3c-2.1,0-3.9-1.7-3.9-3.9c0-0.7,0.2-1.3,0.5-1.9l24.5-44.4c0.4-0.7,1.2-0.9,1.9-0.5
		c0.7,0.4,0.9,1.2,0.5,1.9l-24.5,44.4c-0.3,0.5-0.1,1.2,0.4,1.5c0.2,0.1,0.4,0.1,0.6,0.1h22.3c0.8,0,1.4,0.6,1.4,1.4
		C470.9,296.1,470.3,296.7,469.5,296.7L469.5,296.7z"/>
	
		<rect x="469.5" y="205.8" transform="matrix(0.9818 -0.1901 0.1901 0.9818 -38.3385 94.2388)" class="st1" width="5" height="82.2"/>
	<path class="st0" d="M477.4,288.3c-0.2,0-0.5-0.2-0.5-0.4l-15.6-80.7c0-0.1,0-0.3,0.1-0.4c0.1-0.1,0.2-0.2,0.3-0.2l4.9-0.9
		c0.3,0,0.5,0.1,0.6,0.4l15.6,80.8c0,0.1,0,0.3-0.1,0.4c-0.1,0.1-0.2,0.2-0.3,0.2L477.4,288.3L477.4,288.3z M462.3,207.4l15.4,79.8
		l3.9-0.8l-15.5-79.8L462.3,207.4z"/>
	<polygon class="st6" points="538.7,294.9 498.7,293.8 498.7,296.4 538.7,296.4 	"/>
	<path class="st0" d="M538.7,296.9h-40c-0.3,0-0.5-0.2-0.5-0.5v-2.7c0-0.1,0.1-0.3,0.1-0.4c0.1-0.1,0.2-0.1,0.4-0.1l40,1.1
		c0.3,0,0.5,0.2,0.5,0.5v1.5C539.2,296.7,539,296.9,538.7,296.9z M499.2,295.9h39v-0.5l-39-1.1L499.2,295.9z"/>
	<polygon class="st1" points="423.6,457.5 417.1,457.5 415.7,305.9 425,305.9 	"/>
	<path class="st0" d="M423.6,458h-6.5c-0.3,0-0.5-0.2-0.5-0.5l-1.4-151.7c0-0.1,0.1-0.3,0.1-0.4c0.1-0.1,0.2-0.1,0.4-0.1h9.3
		c0.1,0,0.3,0.1,0.4,0.1c0.1,0.1,0.1,0.2,0.1,0.4l-1.4,151.7C424.1,457.8,423.9,458,423.6,458z M417.6,457h5.5l1.4-150.7h-8.3
		L417.6,457z"/>
	<polygon class="st1" points="543,457.5 536.5,457.5 535.1,305.9 544.4,305.9 	"/>
	<path class="st0" d="M543,458h-6.5c-0.3,0-0.5-0.2-0.5-0.5l-1.4-151.7c0-0.1,0-0.3,0.1-0.4c0.1-0.1,0.2-0.1,0.4-0.1h9.3
		c0.3,0,0.5,0.2,0.5,0.5l-1.4,151.7C543.5,457.8,543.3,458,543,458z M537,457h5.5l1.4-150.7h-8.3L537,457z"/>
	<rect x="406.5" y="296.6" class="st0" width="148.3" height="10"/>
	<path class="st0" d="M554.8,307.1H406.5c-0.3,0-0.5-0.2-0.5-0.5v-10c0-0.3,0.2-0.5,0.5-0.5h148.3c0.3,0,0.5,0.2,0.5,0.5v10
		C555.3,306.9,555,307.1,554.8,307.1z M407,306.1h147.3v-9H407L407,306.1z"/>
</g>
<g id="freepik--character-1--inject-21">
	<path class="st0" d="M333.6,246.1l-8.1,113l-2.2,68.9c0,0-3.4,0.6-3.4,2.8s0.3,5.9,0.3,8.7s-5,16.8-5,16.8h23c0,0-0.3-8.1,0-13.1
		s0.3-7.5,0.9-8.7s2.2-4.4,2.2-7.1s0.6-9,0.9-12.1s21.1-107.2,21.1-107.2s4.4,57.2,5.3,65.6s0.3,21.8,0.6,31.2s6.2,37,6.2,37
		s-1.2,13.1-1.2,14.6h42c0,0,1.6-2.2,0-2.8s-4.7-1.2-5.6-1.5s-16.5-12.4-16.5-12.4s0.3-5.9,0-6.8s-3.1-4.4-3.1-7.5s4-33.6,4-49.5
		v-34.2c0-6.5,0.6-72.1,0.6-72.1l-0.6-25.2L333.6,246.1z"/>
	<path class="st0" d="M416.4,457h-42c-0.3,0-0.5-0.2-0.5-0.5c0-1.5,1.1-13.4,1.2-14.6c-0.4-1.6-5.9-28-6.2-37
		c-0.1-3.5-0.1-7.5-0.1-11.7c0.2-6.5,0-12.9-0.5-19.4c-0.8-7.1-4-49.3-5-62c-3.7,18.3-20.2,100.8-20.4,103.6
		c-0.3,3-0.9,9.3-0.9,12.1s-1.6,6-2.2,7.4c-0.5,0.9-0.5,2.8-0.7,5.8c0,0.8-0.1,1.7-0.2,2.7c-0.3,4.9,0,12.9,0,13
		c0,0.1,0,0.3-0.1,0.4c-0.1,0.1-0.2,0.2-0.4,0.1h-23c-0.2,0-0.3-0.1-0.4-0.2c-0.1-0.1-0.1-0.3-0.1-0.5c1.7-4.8,5-14.5,5-16.6
		c0-1.5-0.1-3.2-0.2-4.9c-0.1-1.5-0.1-2.8-0.1-3.9c0-2.1,2.5-2.9,3.4-3.2l2.2-68.5l8.1-113c0-0.3,0.2-0.5,0.5-0.5l61.6-1.8
		c0.1,0,0.3,0,0.4,0.1c0.1,0.1,0.1,0.2,0.1,0.4l0.6,25.2c0,0.7-0.6,65.7-0.6,72.2v34.2c0,11-2,29.3-3.1,40.2
		c-0.5,4.9-0.9,8.4-0.9,9.3c0,2.1,1.5,4.5,2.4,6c0.3,0.4,0.5,0.9,0.7,1.4c0.3,0.9,0.1,5.4,0,6.8c6.1,4.8,15.3,11.9,16.1,12.2
		c0.3,0.1,0.9,0.3,1.7,0.4c1.3,0.3,2.6,0.7,3.9,1.1c0.5,0.2,0.8,0.5,0.9,1c0.1,0.9-0.2,1.8-0.7,2.6C416.6,457,416.5,457,416.4,457z
		 M374.9,456h41.2c0.3-0.4,0.5-1,0.4-1.5c-0.1-0.2-0.2-0.3-0.4-0.3c-1.2-0.4-2.5-0.8-3.8-1.1c-0.8-0.2-1.4-0.4-1.8-0.5
		c-0.9-0.3-13-9.7-16.6-12.5c-0.1-0.1-0.2-0.3-0.2-0.4c0.2-2.2,0.2-4.4,0-6.7c-0.2-0.4-0.4-0.8-0.6-1.1c-0.9-1.5-2.5-4.1-2.5-6.5
		c0-1,0.4-4.5,0.9-9.5c1.2-10.9,3.1-29.1,3.1-40.1v-34.2c0-6.5,0.6-71.5,0.6-72.1l-0.6-24.7l-60.6,1.8l-8,112.5l-2.2,68.9
		c0,0.2-0.2,0.4-0.4,0.5c0,0-3,0.6-3,2.3c0,1,0.1,2.4,0.1,3.8c0.1,1.7,0.2,3.4,0.2,4.9c0,2.5-3.8,13.4-4.8,16.3h21.8
		c-0.1-1.9-0.2-8.4,0-12.6c0.1-1,0.1-1.9,0.2-2.7c0.2-3.3,0.3-5.1,0.8-6.2s2.1-4.2,2.1-6.9c0-2.8,0.6-9.1,0.9-12.2
		s20.3-103,21.2-107.2c0-0.2,0.3-0.4,0.5-0.4c0.2,0,0.5,0.2,0.5,0.5c0,0.6,4.4,57.3,5.3,65.6c0.5,6.5,0.7,13,0.5,19.5
		c0,4.2,0,8.2,0.1,11.7c0.3,9.2,6.1,36.6,6.2,36.9c0,0,0,0.1,0,0.1C376.1,442.1,375,453.2,374.9,456z M323.4,428L323.4,428z"/>
	<path class="st2" d="M330.6,243.9c0,0,0.2,7,1.8,8.3s24.6,3.9,40.4,3.4s22.1-3.7,23.1-6.8s-1-8.1-1-8.1l-62.2-1.1
		C331.5,240.8,330.8,242.3,330.6,243.9z"/>
	<path class="st0" d="M368.4,256.1c-15.1,0-34.7-2.2-36.4-3.5s-2-7.9-2-8.6c0,0,0-0.1,0-0.1c0.3-1.7,1-3.3,2.2-4.7
		c0.1-0.1,0.2-0.1,0.4-0.1l62.2,1.1c0.2,0,0.4,0.1,0.5,0.3c0.1,0.2,2.1,5.2,1,8.4c-1.4,4.1-10,6.7-23.6,7.2
		C371.4,256.1,369.9,256.1,368.4,256.1z M331.1,244c0.1,2.6,0.6,7,1.6,7.9c1.3,1.1,23.8,3.8,40,3.2c19.2-0.6,22.2-5.1,22.6-6.5
		c0.8-2.5-0.4-6.3-0.9-7.4l-61.6-1.2C331.9,241.2,331.3,242.5,331.1,244z"/>
	<path class="st1" d="M355.7,138.2c0,0-24.7,9-27.4,10.2s-4.9,2.4-5.3,3.9s-13.7,34.3-13.7,34.3L281.2,159c0,0-3.3-3.3-5.1-4.7
		s-5.1-1.2-7.3-1.6s-3.9-3.9-4.7-1.8s-0.6,3.1,0.2,3.7c0.7,0.6,1.3,1.2,1.8,1.8c-1.9-0.5-3.9-1.1-5.7-1.8c-1.6-0.8-3.7-6.1-4.7-3.5
		s5.1,9.2,6.7,10.6s2.6,1.2,5.9,1.6s8.4,0.6,8.4,0.6s26.1,47.4,28.2,48.8s3.3,2.9,4.9,2.2s18.2-18,18.2-18s2,44.7,2.6,46.9
		s2.2,2,3.1,2.2s22.6,2.4,31.8,2.4s22.5-1.8,25.1-2.9s4.3-2.1,4.3-5.1s1.4-30.6,1.4-30.6s12.7,11,15.7,11.2c2.5,0.3,5-1,6.1-3.3
		c1-2,15.5-51.8,15.5-51.8s7.1-5.9,7.1-6.5s1-17.4-1-16.7s-6.9,2.2-6.9,2.2s2-3.7,0.6-6.9s-4.1-4.3-4.1-2.2c0.1,3-0.1,6-0.4,9
		c-0.4,1.8-2,6.3-1.8,9.6s0.2,4.1,0.2,5.3s-18.2,31.6-18.2,31.6s-11.2-36.3-12.5-38.2s-20.6-11.4-20.6-11.4L355.7,138.2z"/>
	<path class="st0" d="M365.5,249.1c-9,0-31.1-2.2-32-2.5l-0.4-0.1c-1.5,0-2.7-1.1-3-2.5c-0.6-2.1-2.3-38.7-2.6-45.9
		c-4,4.2-16,16.7-17.5,17.2s-2.8-0.4-4.2-1.4c-0.4-0.3-0.8-0.6-1.2-0.9c-2-1.4-24.9-42.8-28.2-48.7c-1.1,0-5.3-0.2-8.1-0.6l-1.7-0.2
		c-2-0.2-3.1-0.3-4.5-1.6c-0.1-0.1-8.2-7.7-6.9-11.2c0.2-0.6,0.6-1,1.1-1c0.9-0.1,1.7,1,2.6,2.3c0.5,0.8,1.1,1.4,1.8,2
		c1.3,0.5,2.6,1,3.9,1.3c-0.2-0.2-0.4-0.4-0.6-0.5c-1.4-1.1-0.9-2.8-0.4-4.3c0.1-0.4,0.5-0.8,0.9-0.9c0.7-0.2,1.3,0.4,2.1,1
		c0.6,0.7,1.4,1.1,2.3,1.4c0.6,0.1,1.3,0.2,2.1,0.2c1.9,0.2,4.1,0.4,5.5,1.5c1.8,1.4,5,4.6,5.1,4.7l27.6,27
		c4.6-11.5,13.1-32.5,13.4-33.6c0.4-1.6,2.5-2.8,5.6-4.2c2.6-1.2,26.4-9.9,27.4-10.2c0.1,0,0.2,0,0.3,0l20.4,3.7l0.1,0.1
		c2,1,19.5,9.7,20.8,11.6c1.1,1.7,10.1,30.5,12.2,37.2c7.1-11.9,17.2-29.2,17.5-30.5c0-1.2,0-2-0.2-5.2c-0.2-2.6,0.8-5.9,1.4-8
		c0.2-0.7,0.4-1.3,0.5-1.7c0.3-2.9,0.5-5.9,0.4-8.9c-0.1-0.7,0.3-1.3,1-1.5c1.3-0.3,3,1.3,4,3.6c0.8,2,0.7,4.3-0.1,6.3
		c1.6-0.5,4.4-1.5,5.9-1.9c0.3-0.1,0.6,0,0.8,0.1c0.8,0.6,1.5,3,0.9,16.4c0,0.4,0,0.6,0,0.7c0,0.2,0,0.8-7.2,6.8
		c-1,3.5-14.5,49.8-15.5,51.8c-1.2,2.5-3.9,3.9-6.6,3.5c-2.8-0.2-12.3-8.1-15.2-10.7c-0.3,5-1.4,26.9-1.4,29.6
		c0,3.5-2.1,4.6-4.6,5.6C387.9,247.3,374.6,249.1,365.5,249.1z M327.9,196.5c0.1,0,0.1,0,0.2,0c0.2,0.1,0.3,0.3,0.3,0.4
		c0.7,15.4,2.2,45.1,2.6,46.8c0.2,1.1,1.1,1.8,2.2,1.8c0.2,0,0.4,0,0.5,0.1c0.9,0.2,22.6,2.4,31.7,2.4c9.4,0,22.5-1.9,24.9-2.8
		c2.7-1.1,4-2,4-4.6c0-3,1.4-29.5,1.4-30.6c0-0.2,0.1-0.4,0.3-0.4c0.2-0.1,0.4,0,0.5,0.1c5,4.4,13.3,11,15.4,11.1
		c2.3,0.3,4.6-0.9,5.6-3c0.8-1.6,10.5-34.6,15.5-51.8c0-0.1,0.1-0.2,0.2-0.2c2.5-1.9,4.8-4,7-6.2c0-0.1,0-0.3,0-0.6
		c0.6-13.1-0.2-15.2-0.5-15.5c-2.1,0.6-6.8,2.2-6.9,2.2c-0.2,0.1-0.4,0-0.5-0.2c-0.1-0.2-0.2-0.4-0.1-0.6c0,0,1.9-3.5,0.6-6.5
		c-1-2.2-2.4-3.1-2.9-3c-0.2,0-0.2,0.3-0.2,0.6c0.1,3-0.1,6.1-0.4,9.1c-0.1,0.4-0.3,1-0.5,1.8c-0.6,2.1-1.5,5.3-1.4,7.7
		c0.2,3.3,0.2,4.1,0.2,5.3s-12.8,22.7-18.2,31.9c-0.1,0.2-0.3,0.3-0.5,0.2c-0.2,0-0.4-0.2-0.4-0.4c-4.5-14.6-11.5-36.7-12.4-38
		s-12.9-7.5-20.4-11.2l-20.2-3.6c-1.9,0.7-24.7,9-27.2,10.1s-4.7,2.3-5,3.6c-0.4,1.4-13.1,33-13.7,34.4c-0.1,0.2-0.2,0.3-0.4,0.3
		c-0.2,0-0.3,0-0.5-0.1l-28.2-27.6c0,0-3.3-3.3-5.1-4.7c-1.2-0.9-3.1-1.1-5-1.3c-0.8-0.1-1.5-0.1-2.2-0.3c-1.1-0.3-2-0.9-2.8-1.6
		c-0.4-0.3-1-0.9-1.2-0.8c0,0-0.1,0-0.2,0.3c-0.8,2.1-0.4,2.7,0,3.1c0.7,0.6,1.3,1.2,1.9,1.9c0.1,0.2,0.1,0.4,0,0.6
		c-0.1,0.2-0.3,0.3-0.5,0.2c-2-0.5-3.9-1.1-5.8-1.9c-0.9-0.6-1.6-1.4-2.1-2.3c-0.5-0.6-1.3-1.8-1.6-1.8c0,0-0.1,0-0.2,0.4
		c-0.8,2.1,4.3,8.1,6.6,10.1c1.2,1,2,1.1,4,1.3c0.5,0.1,1,0.1,1.7,0.2c3.2,0.4,8.3,0.6,8.3,0.6c0.2,0,0.3,0.1,0.4,0.3
		c10.4,18.9,26.5,47.5,28,48.6c0.4,0.3,0.8,0.6,1.2,0.9c1.5,1.1,2.2,1.7,3.2,1.3c1.1-0.5,11.6-11.2,18-17.8
		C327.6,196.5,327.8,196.5,327.9,196.5z"/>
	<path class="st0" d="M433.8,153.6c-0.1,0-0.1,0-0.2,0c-0.3-0.1-0.4-0.4-0.3-0.7c1.6-3.9-0.9-7.5-0.9-7.5c-0.2-0.2-0.1-0.5,0.1-0.7
		c0,0,0,0,0,0c0.2-0.2,0.5-0.1,0.7,0.1c1.7,2.5,2.1,5.7,1,8.5C434.1,153.5,434,153.6,433.8,153.6z"/>
	<path class="st1" d="M442.4,141c0,0-4.9,2-5.1,2.9s-0.6,2.9,1.2,2.9s5.5-1.4,6.1-2.7C445.7,142.1,444.3,140.6,442.4,141z"/>
	<path class="st0" d="M438.5,147.2c-0.6,0-1.1-0.2-1.5-0.6c-0.5-0.9-0.6-1.9-0.2-2.8c0.2-0.9,3-2.2,5.4-3.2h0.1
		c1-0.3,2.1,0.1,2.8,0.9c0.6,0.9,0.6,2,0.1,2.9C444.3,145.8,440.4,147.2,438.5,147.2z M442.5,141.5c-2.1,0.9-4.5,2.1-4.8,2.5
		c-0.3,1.2-0.1,1.8,0,1.9s0.2,0.3,0.7,0.3c1.7,0,5.1-1.4,5.7-2.5c0.4-0.5,0.4-1.2,0-1.8C443.8,141.6,443.2,141.4,442.5,141.5
		L442.5,141.5z"/>
	<path class="st1" d="M442.1,146.9c0,0-4.9,2-5.1,2.9s-0.6,2.9,1.2,2.9s5.5-1.4,6.2-2.7C445.4,148,444,146.5,442.1,146.9z"/>
	<path class="st0" d="M438.2,153.1c-0.6,0-1.1-0.2-1.5-0.6c-0.5-0.9-0.6-1.9-0.2-2.8c0.2-0.9,3.1-2.2,5.4-3.2h0.1
		c1-0.3,2.1,0.1,2.8,0.9c0.6,0.9,0.6,2,0.1,2.9C444,151.7,440.1,153.1,438.2,153.1z M442.2,147.4c-2.1,0.9-4.5,2.1-4.8,2.5
		c-0.3,1.2-0.1,1.8,0,1.9s0.2,0.3,0.7,0.3c1.7,0,5.1-1.4,5.7-2.5c0.4-0.5,0.4-1.2,0-1.8C443.5,147.5,442.8,147.3,442.2,147.4
		L442.2,147.4z"/>
	<path class="st1" d="M441.6,151.6c0,0-4.9,2-5.1,2.9s-0.6,2.9,1.2,2.9s5.5-1.4,6.2-2.7C444.9,152.6,443.5,151.1,441.6,151.6z"/>
	<path class="st0" d="M437.8,157.8c-0.6,0-1.1-0.2-1.5-0.6c-0.5-0.9-0.6-1.9-0.2-2.8c0.2-0.9,3.1-2.2,5.4-3.2h0.1
		c1-0.3,2.1,0.1,2.8,0.9c0.6,0.9,0.6,2,0.1,2.9C443.5,156.4,439.6,157.8,437.8,157.8z M441.8,152c-2.1,0.9-4.5,2.1-4.8,2.5
		c-0.3,1.2-0.1,1.8,0,1.9s0.2,0.3,0.7,0.3c1.7,0,5.1-1.4,5.7-2.5c0.4-0.5,0.4-1.2,0-1.8C443,152.1,442.4,151.9,441.8,152L441.8,152z
		"/>
	<path class="st1" d="M441.4,156.7c0,0-3.6,1.5-3.7,2.1s-0.4,2.1,0.9,2.1s4-1,4.5-2c0.5-0.6,0.3-1.5-0.3-2
		C442.3,156.6,441.8,156.5,441.4,156.7z"/>
	<path class="st0" d="M438.6,161.4c-0.5,0-0.9-0.2-1.2-0.5c-0.4-0.7-0.5-1.5-0.2-2.2c0-0.2,0.2-0.8,4-2.4h0.1
		c0.8-0.2,1.6,0.1,2.2,0.7c0.5,0.7,0.5,1.5,0.1,2.2C442.9,160.3,440,161.4,438.6,161.4z M441.6,157.2c-1.2,0.4-2.4,1-3.4,1.8
		c-0.2,0.8,0,1.2,0,1.3s0.1,0.1,0.4,0.1c1.3,0,3.7-1,4-1.7c0.2-0.3,0.2-0.8,0-1.1C442.3,157.2,441.9,157.1,441.6,157.2L441.6,157.2z
		"/>
	<path class="st2" d="M426.2,191.6l-11.4-9.7c-3.2,5.4-5.7,9.6-5.7,9.6s-11.2-36.3-12.5-38.2s-20.6-11.4-20.6-11.4l-20.4-3.7
		c0,0-24.7,9-27.4,10.2s-4.9,2.4-5.3,3.9s-13.7,34.3-13.7,34.3l-7.7-7.6l-10,11.7c6.2,11,12.2,21.3,13.1,21.9c2,1.4,3.3,2.9,4.9,2.2
		s18.2-18,18.2-18s2,44.7,2.6,46.9s2.2,2,3.1,2.2s22.6,2.4,31.8,2.4s24.9-3.2,27.6-4.2s4.3-2,4.3-5.1s-1-29.2-1-29.2
		s12.7,11,15.7,11.2c2.5,0.3,5-1,6.1-3.3C418.6,217,422.5,204.2,426.2,191.6z"/>
	<path class="st0" d="M365.5,249.1c-9,0-31.1-2.2-32-2.5l-0.4-0.1c-1.5,0-2.7-1.1-3-2.5c-0.6-2.1-2.3-38.7-2.6-45.9
		c-4,4.2-16,16.7-17.5,17.2s-2.8-0.4-4.2-1.4c-0.4-0.3-0.8-0.6-1.2-0.9s-1.3-0.9-13.3-22.1c-0.1-0.2-0.1-0.4,0-0.6l10-11.7
		c0.1-0.1,0.2-0.2,0.4-0.2c0.1,0,0.3,0.1,0.4,0.1l7.1,7c4.6-11.5,13.1-32.5,13.4-33.6c0.4-1.6,2.5-2.8,5.6-4.2
		c2.6-1.2,26.4-9.9,27.4-10.2c0.1,0,0.2,0,0.3,0l20.4,3.7l0.1,0.1c2,1,19.5,9.7,20.8,11.6c1.1,1.7,10.1,30.5,12.2,37.2
		c0.9-1.5,2.8-4.8,5.1-8.6c0.1-0.1,0.2-0.2,0.4-0.2c0.1,0,0.3,0,0.4,0.1l11.4,9.7c0.1,0.1,0.2,0.3,0.1,0.5
		c-4.9,16.7-7.6,25.6-8.1,26.5c-1.2,2.5-3.9,3.9-6.6,3.5c-2.8-0.2-12.1-8-15.1-10.6c0.2,5.1,1,25.4,1,28.1c0,3.5-2.1,4.6-4.6,5.6
		C390.5,245.9,374.6,249.1,365.5,249.1z M327.9,196.5c0.1,0,0.1,0,0.2,0c0.2,0.1,0.3,0.3,0.3,0.4c0.7,15.4,2.2,45.1,2.6,46.8
		c0.2,1.1,1.1,1.8,2.2,1.8c0.2,0,0.4,0,0.5,0.1c0.9,0.2,22.6,2.4,31.7,2.4s24.7-3.2,27.4-4.2s4-2,4-4.6c0-3-1-29-1-29.2
		c0-0.2,0.1-0.4,0.3-0.5c0.2-0.1,0.4,0,0.5,0.1c5,4.4,13.3,11,15.4,11.1c2.3,0.3,4.6-0.9,5.6-3c0.2-0.5,1.6-4.4,7.9-26l-10.7-9.1
		c-3,5.1-5.4,9.1-5.4,9.1c-0.1,0.2-0.4,0.3-0.7,0.2c-0.1-0.1-0.2-0.2-0.2-0.3c-4.5-14.6-11.5-36.7-12.4-38s-12.9-7.5-20.4-11.2
		l-20.2-3.6c-1.9,0.7-24.7,9-27.2,10.1s-4.7,2.3-5,3.6c-0.4,1.4-13.1,33-13.7,34.4c-0.1,0.2-0.2,0.3-0.4,0.3c-0.2,0-0.3,0-0.5-0.1
		l-7.3-7.1l-9.4,11c10.2,17.9,12.4,21.1,12.8,21.5s0.8,0.6,1.2,0.9c1.4,1.1,2.2,1.7,3.2,1.3c1.1-0.5,11.6-11.2,18-17.8
		C327.7,196.6,327.8,196.5,327.9,196.5z"/>
	<path class="st0" d="M327.9,197.5c-0.3,0-0.5-0.2-0.5-0.4l-3.5-31.2c0-0.3,0.2-0.5,0.4-0.6c0.3,0,0.5,0.2,0.6,0.4l3.5,31.2
		C328.4,197.2,328.2,197.4,327.9,197.5L327.9,197.5z"/>
	<path class="st0" d="M396.3,210.5L396.3,210.5c-0.3,0-0.5-0.2-0.5-0.5c0,0,0,0,0,0l0.8-40.6c0-0.3,0.2-0.5,0.5-0.5
		c0.3,0,0.5,0.2,0.5,0.5l-0.8,40.6C396.8,210.3,396.6,210.5,396.3,210.5C396.3,210.5,396.3,210.5,396.3,210.5z"/>
	<path class="st0" d="M360.6,160.4c5.7,6.9,10.8,12.7,10.8,12.7s8.7-18.8,11.2-28c-3.6-1.9-6.5-3.3-6.5-3.3l-20.4-3.7l-6.5,2.4
		C351,144.4,356,154.9,360.6,160.4z"/>
	<path class="st0" d="M371.4,173.6c-0.1,0-0.3-0.1-0.4-0.2c-0.1-0.1-5.2-5.8-10.8-12.7c-4.6-5.6-9.5-15.8-11.4-20
		c-0.1-0.1-0.1-0.3,0-0.4c0.1-0.1,0.2-0.2,0.3-0.3l6.5-2.4c0.1,0,0.2,0,0.3,0l20.4,3.7l0.1,0.1c0,0,2.9,1.4,6.5,3.3
		c0.2,0.1,0.3,0.4,0.2,0.6c-2.4,9.1-11.1,27.9-11.2,28C371.8,173.4,371.6,173.5,371.4,173.6L371.4,173.6z M349.9,140.8
		c2,4.4,6.7,14,11.1,19.3c4.6,5.6,8.9,10.4,10.3,12.1c1.6-3.4,8.5-18.7,10.7-26.8c-3.1-1.6-5.6-2.8-6-3l-20.2-3.6L349.9,140.8z"/>
	<path class="st0" d="M326.2,186.5c-0.2,0-0.4-0.1-0.5-0.4l-4.9-16.2c-0.1-0.3,0.1-0.5,0.3-0.6c0.3-0.1,0.5,0.1,0.6,0.3c0,0,0,0,0,0
		l4.9,16.2c0.1,0.3-0.1,0.5-0.3,0.6L326.2,186.5z"/>
	<path class="st0" d="M396.7,197.2L396.7,197.2c-0.4-0.1-0.5-0.3-0.5-0.6l3.8-22.2c0.1-0.3,0.3-0.4,0.6-0.4c0.3,0.1,0.5,0.3,0.4,0.6
		l-3.8,22.2C397.2,197,396.9,197.2,396.7,197.2z"/>
	<path class="st0" d="M405.8,198.7c-0.1,0-0.2,0-0.2-0.1c-0.2-0.1-0.4-0.4-0.2-0.7c0,0,0,0,0,0l3.4-6.8c0.1-0.2,0.4-0.3,0.7-0.2
		c0.2,0.1,0.4,0.4,0.2,0.7c0,0,0,0,0,0l-3.4,6.8C406.2,198.6,406,198.7,405.8,198.7z"/>
	<path class="st0" d="M313.8,193.2c-0.2,0-0.3-0.1-0.4-0.2l-4.5-6.1c-0.2-0.2-0.1-0.5,0.1-0.7c0.2-0.2,0.5-0.1,0.7,0.1v0l4.5,6.1
		c0.2,0.2,0.1,0.5-0.1,0.7C314,193.1,313.9,193.2,313.8,193.2z"/>
	<path class="st0" d="M278.5,160.7c-0.1,0-0.2,0-0.3-0.1c-1.1-1-4.5-3.4-6.3-3.4c-2.3,0-7.3,2-7.4,2c-0.2,0.1-0.3,0-0.5-0.1l-2.9-2
		c-0.2-0.1-0.3-0.5-0.2-0.7c0.1-0.2,0.5-0.3,0.7-0.2c0,0,0,0,0,0l2.7,1.9c1.1-0.4,5.3-1.9,7.5-1.9c2.6,0,6.8,3.5,7,3.7
		c0.2,0.2,0.2,0.5,0.1,0.7C278.8,160.7,278.6,160.7,278.5,160.7z"/>
	<path class="st1" d="M392.8,104.1c0,0,2.8,8.8,3,11.5s-1.1,4.5-0.9,6.3s2.6,5.6,1.9,6.7s-5.4,2.1-5.4,2.1s-2.1,10.3-4.3,10.6
		s-9.5,0-9.5,0s-6.3,20.3-7.3,20.9S354,143.6,354,140.6s4.3-17.7,4.3-17.7l-4.8-15.3c0,0-3.2-5,3.7-9.3s21-2,25.5-1.5
		S392.8,104.1,392.8,104.1z"/>
	<path class="st0" d="M370.2,162.7c-0.2,0-0.3,0-0.4-0.1c-2.2-1.3-16.2-18.8-16.2-22c0-2.9,3.8-16.1,4.3-17.7l-4.8-15.1
		c-0.7-1.4-1-2.9-0.6-4.4c0.5-2.1,2-3.9,4.5-5.5c6.6-4.1,19.4-2.4,24.8-1.7l1,0.1c4.6,0.6,10.1,7.2,10.4,7.4c0,0,0.1,0.1,0.1,0.2
		c0.1,0.4,2.8,8.8,3,11.7c0.1,1.3-0.1,2.7-0.5,3.9c-0.3,0.8-0.4,1.6-0.4,2.4c0.2,1,0.5,1.9,1,2.8c0.8,1.8,1.4,3.4,0.8,4.2
		c-0.7,1.1-4.1,1.9-5.4,2.2c-0.6,2.8-2.3,10.3-4.6,10.7c-3.1,0.2-6.1,0.2-9.2,0c-2.4,7.7-6.4,20.2-7.4,20.8
		C370.4,162.6,370.3,162.7,370.2,162.7z M369.8,96.2c-4.5,0-9.2,0.6-12.3,2.5c-6.4,4-3.7,8.4-3.6,8.6c0,0,0,0.1,0,0.1l4.8,15.3
		c0,0.1,0,0.2,0,0.3c0,0.1-4.3,14.7-4.3,17.6c0,2.4,13.2,19.3,15.5,21c0.9-1.7,4.7-13.2,6.9-20.4c0.1-0.2,0.3-0.4,0.5-0.4
		c0.1,0,7.2,0.4,9.4,0c1.2-0.2,2.9-5.5,3.9-10.2c0-0.2,0.2-0.3,0.4-0.4c1.9-0.4,4.6-1.2,5.1-1.8c0.3-0.4-0.4-2.2-0.9-3.3
		c-0.5-1-0.8-2-1-3.1c0-0.9,0.1-1.9,0.4-2.8c0.4-1.1,0.6-2.4,0.5-3.6c-0.2-2.6-2.6-10.4-2.9-11.3c-0.6-0.7-5.7-6.5-9.7-7l-1-0.1
		C377.8,96.6,373.8,96.3,369.8,96.2z"/>
	<path class="st0" d="M394.1,116.3c-0.2,0-0.4-0.1-0.5-0.3c-0.3-0.8-0.8-1.4-1.6-1.7c-0.9-0.3-2,0.1-3.2,1c-0.2,0.2-0.5,0.1-0.7-0.1
		c0,0,0,0,0,0c-0.2-0.2-0.1-0.5,0.1-0.7c0,0,0,0,0,0c1.6-1.2,3-1.6,4.1-1.2c1,0.4,1.9,1.3,2.2,2.3c0.1,0.3-0.1,0.5-0.3,0.6
		c0,0,0,0,0,0C394.2,116.3,394.2,116.3,394.1,116.3z"/>
	<path class="st0" d="M391.9,120.5c0,1.3-0.6,2.3-1.3,2.3s-1.3-1-1.3-2.3s0.6-2.3,1.3-2.3S391.9,119.2,391.9,120.5z"/>
	<path class="st0" d="M388,132.5L388,132.5c-1.5-0.2-2.8-0.8-3.7-1.9c-0.2-0.2-0.2-0.5,0-0.7c0,0,0,0,0,0c0.2-0.2,0.5-0.2,0.7,0
		c0.8,0.8,1.9,1.4,3,1.5c0.3,0,0.5,0.3,0.5,0.6C388.5,132.3,388.3,132.5,388,132.5z"/>
	<polygon class="st0" points="377.5,141.3 372,139.3 375.7,146.2 	"/>
	<path class="st0" d="M375.7,146.7c-0.2,0-0.4-0.1-0.4-0.3l-3.7-6.9c-0.1-0.2-0.1-0.4,0.1-0.6c0.1-0.2,0.4-0.2,0.5-0.1l5.6,2
		c0.1,0,0.2,0.1,0.3,0.3c0,0.1,0,0.3,0,0.4l-1.9,4.8C376.1,146.5,375.9,146.6,375.7,146.7L375.7,146.7z M373,140.2l2.6,4.8l1.3-3.4
		L373,140.2z"/>
	<path class="st0" d="M368.8,130.1L368.8,130.1c-0.3,0-0.5-0.3-0.5-0.5c0,0,0,0,0,0l0.3-4c-0.9-0.1-1.9-0.3-2.8-0.5
		c-0.9-0.4-1.7-1-2.3-1.9c-0.2-0.2-0.1-0.5,0.1-0.7c0.2-0.2,0.5-0.1,0.7,0.1c0.5,0.6,1.1,1.2,1.8,1.5c1,0.3,2,0.4,3.1,0.5
		c0.3,0,0.5,0.3,0.5,0.5l-0.4,4.5C369.3,129.9,369.1,130.1,368.8,130.1C368.8,130.1,368.8,130.1,368.8,130.1z"/>
	<path class="st0" d="M364,115.2c1.6-1.1,3.8-0.6,4.9,1c0.1,0.1,0.1,0.2,0.2,0.3c0.2,0.3,0.4,0.6,0.6,0.6c0.7,0.2,2.2,1.1,3-0.4
		s-0.2-4.8,0.7-5.8s4.3-0.9,4.7-2.4s-3-5.6-2-6.5s12.9,2.8,14.9,3.2s9.7-3.7,10.2-9.9s-5-11.9-9.3-10.8c-4.6,1.1-9.1,2.6-13.4,4.5
		c-6,2.6-19.4,1.5-24.6,8.8s-1.1,18.1,0.2,19.7s3.5,8.4,5.8,8c1.6-0.4,3-1.3,4.1-2.6C363.9,122.9,361,117.4,364,115.2z"/>
	<path class="st0" d="M359.7,126c-1.8,0-3.3-3-4.6-5.7c-0.4-0.9-0.9-1.7-1.4-2.5c-1.3-1.7-5.6-12.7-0.2-20.3c3.6-5,10.7-6.1,17-7.1
		c2.7-0.3,5.3-0.9,7.8-1.8c4.1-1.8,8.3-3.2,12.6-4.3l0.9-0.2c2.1-0.4,4.3,0.3,5.9,1.8c2.8,2.4,4.2,5.9,4,9.5
		c-0.4,3.8-3.2,6.6-4.9,7.9c-2.2,1.7-4.7,2.7-5.9,2.5c-0.6-0.1-2-0.5-3.7-1c-3.2-0.9-9.9-2.7-10.8-2.3c-0.2,0.3,0.7,1.9,1.1,2.7
		c0.7,1.4,1.4,2.7,1.2,3.6c-0.3,1.2-1.7,1.6-3,1.9c-0.6,0.1-1.2,0.4-1.8,0.7c-0.3,0.3-0.3,1.5-0.3,2.5c0.1,1.1,0,2.1-0.4,3.2
		c-0.8,1.6-2.4,1.1-3.1,0.8c-0.1-0.1-0.3-0.1-0.4-0.1c-0.4-0.2-0.8-0.5-0.9-0.9c-0.5-0.8-1.3-1.4-2.2-1.6c-0.8-0.2-1.5,0-2.2,0.4
		l0,0c-2.6,1.9,0.1,7,0.1,7.1c0.1,0.2,0.1,0.4-0.1,0.6c-1.1,1.4-2.7,2.3-4.4,2.8L359.7,126z M393,84.9c-0.3,0-0.7,0-1,0.1l-0.9,0.2
		c-4.3,1-8.5,2.4-12.5,4.2c-2.6,0.9-5.3,1.6-8.1,1.9c-6.1,1-13,2.1-16.3,6.7c-5.1,7.1-0.9,17.8,0.2,19.1c0.6,0.9,1.1,1.8,1.5,2.7
		c1,2,2.6,5.3,3.8,5.1c1.4-0.4,2.6-1.1,3.6-2.2c-0.6-1.3-2.5-5.9,0.4-8c0.9-0.6,2-0.9,3-0.6c1.2,0.3,2.2,1,2.9,2.1
		c0.2,0.4,0.3,0.4,0.3,0.4c0.2,0,0.3,0.1,0.5,0.2c1,0.4,1.5,0.4,1.9-0.3c0.3-0.9,0.4-1.8,0.2-2.7c0-1.3,0-2.6,0.6-3.2
		c0.7-0.5,1.4-0.8,2.2-1c1-0.3,2.2-0.6,2.3-1.2s-0.5-1.8-1.1-2.9c-0.9-1.7-1.6-3.1-0.8-3.8s3.2-0.2,11.7,2.1
		c1.6,0.4,3.1,0.8,3.6,0.9s2.8-0.5,5.1-2.3c1.6-1.2,4.2-3.7,4.5-7.2c0.2-3.3-1.2-6.5-3.7-8.7C395.9,85.6,394.5,85,393,84.9z
		 M364,115.2L364,115.2z"/>
</g>
</svg>
