<?xml version="1.0" encoding="utf-8"?>
<!-- Generator: Adobe Illustrator 25.2.3, SVG Export Plug-In . SVG Version: 6.00 Build 0)  -->
<svg version="1.1" id="Layer_1" xmlns="http://www.w3.org/2000/svg" xmlns:xlink="http://www.w3.org/1999/xlink" x="0px" y="0px"
	 viewBox="0 0 1640 1048" style="enable-background:new 0 0 1640 1048;" xml:space="preserve">
<style type="text/css">
	.st0{fill:#172B2D;}
	.st1{fill:#004643;}
	.st2{fill:#004643;stroke:#004643;stroke-width:4;stroke-miterlimit:10;}
	.st3{fill:#172B2D;stroke:#172B2D;stroke-width:4;stroke-miterlimit:10;}
</style>
<g>
	<circle class="st0" cx="130.31" cy="419" r="71.88"/>
	<circle class="st1" cx="556.44" cy="629" r="71.88"/>
	<path class="st0" d="M332.5,700.88H71.87C32.18,700.88,0,668.7,0,629v0c0-39.7,32.18-71.87,71.87-71.87H332.5
		c39.7,0,71.87,32.18,71.87,71.87v0C404.38,668.7,372.2,700.88,332.5,700.88z"/>
	<path class="st1" d="M614.88,490.88H354.25c-39.7,0-71.87-32.18-71.87-71.87v0c0-39.7,32.18-71.87,71.87-71.87h260.63
		c39.7,0,71.87,32.18,71.87,71.87v0C686.75,458.7,654.57,490.88,614.88,490.88z"/>
</g>
<g>
	<g>
		<path class="st2" d="M699.58,617.66V472.03h18.95l2.39,17.36c6.98-12.37,20.74-20.55,37.5-20.55c27.93,0,47.68,22.74,47.68,55.46
			c0,33.31-19.75,56.45-47.88,56.45c-15.16,0-27.73-6.78-34.91-17.75v54.66H699.58z M781.97,524.3c0-20.95-11.77-35.51-29.12-35.51
			s-29.52,14.36-29.52,34.91c0,21.74,12.17,37.1,29.72,37.1C770.2,560.8,781.97,545.84,781.97,524.3z"/>
		<path class="st2" d="M821.07,442.51c0-8.58,6.58-15.16,15.16-15.16c8.78,0,15.16,6.58,15.16,15.16s-6.38,15.36-15.16,15.36
			C827.65,457.87,821.07,451.09,821.07,442.51z M824.46,577.76V472.03H848v105.73H824.46z"/>
		<path class="st2" d="M871.93,577.76V472.03h18.95l2,15.56c6.58-10.97,19.95-18.75,35.71-18.75c22.54,0,37.3,15.16,37.3,38.9v70.02
			h-23.54v-68.82c0-11.77-7.78-19.55-20.95-19.55c-15.36,0-25.73,10.57-25.93,24.34v64.03H871.93z"/>
		<path class="st2" d="M988.83,577.76V428.15h23.54v89.77l45.08-45.88h28.72l-38.3,38.1l43.49,67.63h-27.33l-32.52-51.27
			l-19.15,19.15v32.12H988.83z"/>
	</g>
	<g>
		<path class="st3" d="M1165.53,620.65V475.03h18.95l2.39,17.36c6.98-12.37,20.74-20.55,37.5-20.55c27.93,0,47.68,22.74,47.68,55.46
			c0,33.31-19.75,56.45-47.88,56.45c-15.16,0-27.73-6.78-34.91-17.75v54.66H1165.53z M1247.92,527.29
			c0-20.95-11.77-35.51-29.12-35.51c-17.36,0-29.52,14.36-29.52,34.91c0,21.74,12.17,37.1,29.72,37.1
			C1236.15,563.8,1247.92,548.84,1247.92,527.29z"/>
		<path class="st3" d="M1284.82,526.89c0-34.51,23.34-55.06,54.26-55.06c34.11,0,54.06,23.94,54.06,55.06
			c0,35.71-22.54,56.85-54.06,56.85C1304.77,583.74,1284.82,559.61,1284.82,526.89z M1369.2,526.89c0-20.95-11.77-34.91-30.12-34.91
			c-18.35,0-30.32,13.96-30.32,34.91c0,23.14,12.97,36.7,30.32,36.7C1358.03,563.6,1369.2,548.04,1369.2,526.89z"/>
		<path class="st3" d="M1411.49,580.75V475.03h18.95l2,15.56c6.58-10.97,19.95-18.75,35.71-18.75c22.54,0,37.3,15.16,37.3,38.9
			v70.02h-23.54v-68.82c0-11.77-7.78-19.55-20.95-19.55c-15.36,0-25.73,10.57-25.93,24.34v64.03H1411.49z"/>
		<path class="st3" d="M1528.38,580.75V431.14h23.54v89.77l45.08-45.88h28.72l-38.3,38.1l43.49,67.63h-27.33l-32.52-51.27
			l-19.15,19.15v32.12H1528.38z"/>
	</g>
</g>
</svg>
